<svg viewBox="0 0 476 497" version="1.1" xmlns="http://www.w3.org/2000/svg" xmlns:xlink="http://www.w3.org/1999/xlink" id="BkNHBpSbm"><style>@-webkit-keyframes SyfW4SS6Sb7_rJKRud6S-m_Animation{0%{-webkit-transform: translate(0px, 0px);transform: translate(0px, 0px);}3.54%{-webkit-transform: translate(0px, 0px);transform: translate(0px, 0px);}7.58%{-webkit-transform: translate(0px, 0px);transform: translate(0px, 0px);}11.62%{-webkit-transform: translate(0px, 0px);transform: translate(0px, 0px);}15.15%{-webkit-transform: translate(0px, 0px);transform: translate(0px, 0px);}19.19%{-webkit-transform: translate(0px, 0px);transform: translate(0px, 0px);}22.73%{-webkit-transform: translate(0px, 0px);transform: translate(0px, 0px);}26.26%{-webkit-transform: translate(0px, 0px);transform: translate(0px, 0px);}30.30%{-webkit-transform: translate(0px, 0px);transform: translate(0px, 0px);}34.34%{-webkit-transform: translate(0px, 0px);transform: translate(0px, 0px);}37.88%{-webkit-transform: translate(0px, 0px);transform: translate(0px, 0px);}41.92%{-webkit-transform: translate(0px, 0px);transform: translate(0px, 0px);}45.45%{-webkit-transform: translate(0px, 0px);transform: translate(0px, 0px);}53.03%{-webkit-transform: translate(30px, 30px);transform: translate(30px, 30px);}60.61%{-webkit-transform: translate(30px, 30px);transform: translate(30px, 30px);}68.18%{-webkit-transform: translate(0px, 0px);transform: translate(0px, 0px);}75.76%{-webkit-transform: translate(0px, 0px);transform: translate(0px, 0px);}83.33%{-webkit-transform: translate(30px, 30px);transform: translate(30px, 30px);}90.91%{-webkit-transform: translate(30px, 30px);transform: translate(30px, 30px);}96.46%{-webkit-transform: translate(30px, 30px);transform: translate(30px, 30px);}100%{-webkit-transform: translate(0px, 0px);transform: translate(0px, 0px);}}@keyframes SyfW4SS6Sb7_rJKRud6S-m_Animation{0%{-webkit-transform: translate(0px, 0px);transform: translate(0px, 0px);}3.54%{-webkit-transform: translate(0px, 0px);transform: translate(0px, 0px);}7.58%{-webkit-transform: translate(0px, 0px);transform: translate(0px, 0px);}11.62%{-webkit-transform: translate(0px, 0px);transform: translate(0px, 0px);}15.15%{-webkit-transform: translate(0px, 0px);transform: translate(0px, 0px);}19.19%{-webkit-transform: translate(0px, 0px);transform: translate(0px, 0px);}22.73%{-webkit-transform: translate(0px, 0px);transform: translate(0px, 0px);}26.26%{-webkit-transform: translate(0px, 0px);transform: translate(0px, 0px);}30.30%{-webkit-transform: translate(0px, 0px);transform: translate(0px, 0px);}34.34%{-webkit-transform: translate(0px, 0px);transform: translate(0px, 0px);}37.88%{-webkit-transform: translate(0px, 0px);transform: translate(0px, 0px);}41.92%{-webkit-transform: translate(0px, 0px);transform: translate(0px, 0px);}45.45%{-webkit-transform: translate(0px, 0px);transform: translate(0px, 0px);}53.03%{-webkit-transform: translate(30px, 30px);transform: translate(30px, 30px);}60.61%{-webkit-transform: translate(30px, 30px);transform: translate(30px, 30px);}68.18%{-webkit-transform: translate(0px, 0px);transform: translate(0px, 0px);}75.76%{-webkit-transform: translate(0px, 0px);transform: translate(0px, 0px);}83.33%{-webkit-transform: translate(30px, 30px);transform: translate(30px, 30px);}90.91%{-webkit-transform: translate(30px, 30px);transform: translate(30px, 30px);}96.46%{-webkit-transform: translate(30px, 30px);transform: translate(30px, 30px);}100%{-webkit-transform: translate(0px, 0px);transform: translate(0px, 0px);}}@-webkit-keyframes SyfW4SS6Sb7_SyXPu6BWQ_Animation{0%{-webkit-transform: rotate(0deg);transform: rotate(0deg);}3.54%{-webkit-transform: rotate(20deg);transform: rotate(20deg);}7.58%{-webkit-transform: rotate(0deg);transform: rotate(0deg);}11.62%{-webkit-transform: rotate(20deg);transform: rotate(20deg);}15.15%{-webkit-transform: rotate(0deg);transform: rotate(0deg);}19.19%{-webkit-transform: rotate(20deg);transform: rotate(20deg);}22.73%{-webkit-transform: rotate(0deg);transform: rotate(0deg);}26.26%{-webkit-transform: rotate(20deg);transform: rotate(20deg);}30.30%{-webkit-transform: rotate(0deg);transform: rotate(0deg);}34.34%{-webkit-transform: rotate(20deg);transform: rotate(20deg);}37.88%{-webkit-transform: rotate(0deg);transform: rotate(0deg);}41.92%{-webkit-transform: rotate(20deg);transform: rotate(20deg);}45.45%{-webkit-transform: rotate(0deg);transform: rotate(0deg);}53.03%{-webkit-transform: rotate(60deg);transform: rotate(60deg);}60.61%{-webkit-transform: rotate(60deg);transform: rotate(60deg);}68.18%{-webkit-transform: rotate(0deg);transform: rotate(0deg);}75.76%{-webkit-transform: rotate(0deg);transform: rotate(0deg);}83.33%{-webkit-transform: rotate(60deg);transform: rotate(60deg);}90.91%{-webkit-transform: rotate(60deg);transform: rotate(60deg);}96.46%{-webkit-transform: rotate(60deg);transform: rotate(60deg);}100%{-webkit-transform: rotate(0deg);transform: rotate(0deg);}}@keyframes SyfW4SS6Sb7_SyXPu6BWQ_Animation{0%{-webkit-transform: rotate(0deg);transform: rotate(0deg);}3.54%{-webkit-transform: rotate(20deg);transform: rotate(20deg);}7.58%{-webkit-transform: rotate(0deg);transform: rotate(0deg);}11.62%{-webkit-transform: rotate(20deg);transform: rotate(20deg);}15.15%{-webkit-transform: rotate(0deg);transform: rotate(0deg);}19.19%{-webkit-transform: rotate(20deg);transform: rotate(20deg);}22.73%{-webkit-transform: rotate(0deg);transform: rotate(0deg);}26.26%{-webkit-transform: rotate(20deg);transform: rotate(20deg);}30.30%{-webkit-transform: rotate(0deg);transform: rotate(0deg);}34.34%{-webkit-transform: rotate(20deg);transform: rotate(20deg);}37.88%{-webkit-transform: rotate(0deg);transform: rotate(0deg);}41.92%{-webkit-transform: rotate(20deg);transform: rotate(20deg);}45.45%{-webkit-transform: rotate(0deg);transform: rotate(0deg);}53.03%{-webkit-transform: rotate(60deg);transform: rotate(60deg);}60.61%{-webkit-transform: rotate(60deg);transform: rotate(60deg);}68.18%{-webkit-transform: rotate(0deg);transform: rotate(0deg);}75.76%{-webkit-transform: rotate(0deg);transform: rotate(0deg);}83.33%{-webkit-transform: rotate(60deg);transform: rotate(60deg);}90.91%{-webkit-transform: rotate(60deg);transform: rotate(60deg);}96.46%{-webkit-transform: rotate(60deg);transform: rotate(60deg);}100%{-webkit-transform: rotate(0deg);transform: rotate(0deg);}}@-webkit-keyframes H1l-EHBTBbX_HJyC8Tr-7_Animation{0%{-webkit-transform: rotate(10deg);transform: rotate(10deg);}7.58%{-webkit-transform: rotate(0deg);transform: rotate(0deg);}15.15%{-webkit-transform: rotate(10deg);transform: rotate(10deg);}22.73%{-webkit-transform: rotate(0deg);transform: rotate(0deg);}30.30%{-webkit-transform: rotate(10deg);transform: rotate(10deg);}37.88%{-webkit-transform: rotate(0deg);transform: rotate(0deg);}45.45%{-webkit-transform: rotate(10deg);transform: rotate(10deg);}53.03%{-webkit-transform: rotate(-10deg);transform: rotate(-10deg);}60.61%{-webkit-transform: rotate(-10deg);transform: rotate(-10deg);}68.18%{-webkit-transform: rotate(-75deg);transform: rotate(-75deg);}75.76%{-webkit-transform: rotate(-75deg);transform: rotate(-75deg);}83.33%{-webkit-transform: rotate(-10deg);transform: rotate(-10deg);}90.91%{-webkit-transform: rotate(-10deg);transform: rotate(-10deg);}96.46%{-webkit-transform: rotate(-10deg);transform: rotate(-10deg);}100%{-webkit-transform: rotate(10deg);transform: rotate(10deg);}}@keyframes H1l-EHBTBbX_HJyC8Tr-7_Animation{0%{-webkit-transform: rotate(10deg);transform: rotate(10deg);}7.58%{-webkit-transform: rotate(0deg);transform: rotate(0deg);}15.15%{-webkit-transform: rotate(10deg);transform: rotate(10deg);}22.73%{-webkit-transform: rotate(0deg);transform: rotate(0deg);}30.30%{-webkit-transform: rotate(10deg);transform: rotate(10deg);}37.88%{-webkit-transform: rotate(0deg);transform: rotate(0deg);}45.45%{-webkit-transform: rotate(10deg);transform: rotate(10deg);}53.03%{-webkit-transform: rotate(-10deg);transform: rotate(-10deg);}60.61%{-webkit-transform: rotate(-10deg);transform: rotate(-10deg);}68.18%{-webkit-transform: rotate(-75deg);transform: rotate(-75deg);}75.76%{-webkit-transform: rotate(-75deg);transform: rotate(-75deg);}83.33%{-webkit-transform: rotate(-10deg);transform: rotate(-10deg);}90.91%{-webkit-transform: rotate(-10deg);transform: rotate(-10deg);}96.46%{-webkit-transform: rotate(-10deg);transform: rotate(-10deg);}100%{-webkit-transform: rotate(10deg);transform: rotate(10deg);}}@-webkit-keyframes H1l-EHBTBbX_ByA6UTBWX_Animation{0%{-webkit-transform: translate(-10px, 10px);transform: translate(-10px, 10px);}7.58%{-webkit-transform: translate(-10px, 10px);transform: translate(-10px, 10px);}15.15%{-webkit-transform: translate(-10px, 10px);transform: translate(-10px, 10px);}22.73%{-webkit-transform: translate(-10px, 10px);transform: translate(-10px, 10px);}30.30%{-webkit-transform: translate(-10px, 10px);transform: translate(-10px, 10px);}37.88%{-webkit-transform: translate(-10px, 10px);transform: translate(-10px, 10px);}45.45%{-webkit-transform: translate(-10px, 10px);transform: translate(-10px, 10px);}53.03%{-webkit-transform: translate(-50px, -50px);transform: translate(-50px, -50px);}60.61%{-webkit-transform: translate(-50px, -50px);transform: translate(-50px, -50px);}68.18%{-webkit-transform: translate(-110px, 15px);transform: translate(-110px, 15px);}75.76%{-webkit-transform: translate(-110px, 15px);transform: translate(-110px, 15px);}83.33%{-webkit-transform: translate(-50px, -50px);transform: translate(-50px, -50px);}90.91%{-webkit-transform: translate(-50px, -50px);transform: translate(-50px, -50px);}96.46%{-webkit-transform: translate(-50px, -50px);transform: translate(-50px, -50px);}100%{-webkit-transform: translate(-10px, 10px);transform: translate(-10px, 10px);}}@keyframes H1l-EHBTBbX_ByA6UTBWX_Animation{0%{-webkit-transform: translate(-10px, 10px);transform: translate(-10px, 10px);}7.58%{-webkit-transform: translate(-10px, 10px);transform: translate(-10px, 10px);}15.15%{-webkit-transform: translate(-10px, 10px);transform: translate(-10px, 10px);}22.73%{-webkit-transform: translate(-10px, 10px);transform: translate(-10px, 10px);}30.30%{-webkit-transform: translate(-10px, 10px);transform: translate(-10px, 10px);}37.88%{-webkit-transform: translate(-10px, 10px);transform: translate(-10px, 10px);}45.45%{-webkit-transform: translate(-10px, 10px);transform: translate(-10px, 10px);}53.03%{-webkit-transform: translate(-50px, -50px);transform: translate(-50px, -50px);}60.61%{-webkit-transform: translate(-50px, -50px);transform: translate(-50px, -50px);}68.18%{-webkit-transform: translate(-110px, 15px);transform: translate(-110px, 15px);}75.76%{-webkit-transform: translate(-110px, 15px);transform: translate(-110px, 15px);}83.33%{-webkit-transform: translate(-50px, -50px);transform: translate(-50px, -50px);}90.91%{-webkit-transform: translate(-50px, -50px);transform: translate(-50px, -50px);}96.46%{-webkit-transform: translate(-50px, -50px);transform: translate(-50px, -50px);}100%{-webkit-transform: translate(-10px, 10px);transform: translate(-10px, 10px);}}@-webkit-keyframes BkpeVBB6rZX_B1gZcaHZX_Animation{0%{-webkit-transform: translate(0px, 0px);transform: translate(0px, 0px);}3.54%{-webkit-transform: translate(0px, 0px);transform: translate(0px, 0px);}7.58%{-webkit-transform: translate(0px, 0px);transform: translate(0px, 0px);}11.62%{-webkit-transform: translate(0px, 0px);transform: translate(0px, 0px);}15.15%{-webkit-transform: translate(0px, 0px);transform: translate(0px, 0px);}19.19%{-webkit-transform: translate(0px, 0px);transform: translate(0px, 0px);}22.73%{-webkit-transform: translate(0px, 0px);transform: translate(0px, 0px);}26.26%{-webkit-transform: translate(0px, 0px);transform: translate(0px, 0px);}30.30%{-webkit-transform: translate(0px, 0px);transform: translate(0px, 0px);}34.34%{-webkit-transform: translate(0px, 0px);transform: translate(0px, 0px);}37.88%{-webkit-transform: translate(0px, 0px);transform: translate(0px, 0px);}41.92%{-webkit-transform: translate(0px, 0px);transform: translate(0px, 0px);}45.45%{-webkit-transform: translate(0px, 0px);transform: translate(0px, 0px);}53.03%{-webkit-transform: translate(0px, 0px);transform: translate(0px, 0px);}60.61%{-webkit-transform: translate(0px, 0px);transform: translate(0px, 0px);}68.18%{-webkit-transform: translate(30px, 30px);transform: translate(30px, 30px);}75.76%{-webkit-transform: translate(30px, 30px);transform: translate(30px, 30px);}83.33%{-webkit-transform: translate(0px, 0px);transform: translate(0px, 0px);}90.91%{-webkit-transform: translate(0px, 0px);transform: translate(0px, 0px);}96.46%{-webkit-transform: translate(0px, 0px);transform: translate(0px, 0px);}100%{-webkit-transform: translate(0px, 0px);transform: translate(0px, 0px);}}@keyframes BkpeVBB6rZX_B1gZcaHZX_Animation{0%{-webkit-transform: translate(0px, 0px);transform: translate(0px, 0px);}3.54%{-webkit-transform: translate(0px, 0px);transform: translate(0px, 0px);}7.58%{-webkit-transform: translate(0px, 0px);transform: translate(0px, 0px);}11.62%{-webkit-transform: translate(0px, 0px);transform: translate(0px, 0px);}15.15%{-webkit-transform: translate(0px, 0px);transform: translate(0px, 0px);}19.19%{-webkit-transform: translate(0px, 0px);transform: translate(0px, 0px);}22.73%{-webkit-transform: translate(0px, 0px);transform: translate(0px, 0px);}26.26%{-webkit-transform: translate(0px, 0px);transform: translate(0px, 0px);}30.30%{-webkit-transform: translate(0px, 0px);transform: translate(0px, 0px);}34.34%{-webkit-transform: translate(0px, 0px);transform: translate(0px, 0px);}37.88%{-webkit-transform: translate(0px, 0px);transform: translate(0px, 0px);}41.92%{-webkit-transform: translate(0px, 0px);transform: translate(0px, 0px);}45.45%{-webkit-transform: translate(0px, 0px);transform: translate(0px, 0px);}53.03%{-webkit-transform: translate(0px, 0px);transform: translate(0px, 0px);}60.61%{-webkit-transform: translate(0px, 0px);transform: translate(0px, 0px);}68.18%{-webkit-transform: translate(30px, 30px);transform: translate(30px, 30px);}75.76%{-webkit-transform: translate(30px, 30px);transform: translate(30px, 30px);}83.33%{-webkit-transform: translate(0px, 0px);transform: translate(0px, 0px);}90.91%{-webkit-transform: translate(0px, 0px);transform: translate(0px, 0px);}96.46%{-webkit-transform: translate(0px, 0px);transform: translate(0px, 0px);}100%{-webkit-transform: translate(0px, 0px);transform: translate(0px, 0px);}}@-webkit-keyframes BkpeVBB6rZX_SJk-q6SWX_Animation{0%{-webkit-transform: rotate(0deg);transform: rotate(0deg);}3.54%{-webkit-transform: rotate(20deg);transform: rotate(20deg);}7.58%{-webkit-transform: rotate(0deg);transform: rotate(0deg);}11.62%{-webkit-transform: rotate(20deg);transform: rotate(20deg);}15.15%{-webkit-transform: rotate(0deg);transform: rotate(0deg);}19.19%{-webkit-transform: rotate(20deg);transform: rotate(20deg);}22.73%{-webkit-transform: rotate(0deg);transform: rotate(0deg);}26.26%{-webkit-transform: rotate(20deg);transform: rotate(20deg);}30.30%{-webkit-transform: rotate(0deg);transform: rotate(0deg);}34.34%{-webkit-transform: rotate(20deg);transform: rotate(20deg);}37.88%{-webkit-transform: rotate(0deg);transform: rotate(0deg);}41.92%{-webkit-transform: rotate(20deg);transform: rotate(20deg);}45.45%{-webkit-transform: rotate(0deg);transform: rotate(0deg);}53.03%{-webkit-transform: rotate(0deg);transform: rotate(0deg);}60.61%{-webkit-transform: rotate(0deg);transform: rotate(0deg);}68.18%{-webkit-transform: rotate(60deg);transform: rotate(60deg);}75.76%{-webkit-transform: rotate(60deg);transform: rotate(60deg);}83.33%{-webkit-transform: rotate(0deg);transform: rotate(0deg);}90.91%{-webkit-transform: rotate(0deg);transform: rotate(0deg);}96.46%{-webkit-transform: rotate(0deg);transform: rotate(0deg);}100%{-webkit-transform: rotate(0deg);transform: rotate(0deg);}}@keyframes BkpeVBB6rZX_SJk-q6SWX_Animation{0%{-webkit-transform: rotate(0deg);transform: rotate(0deg);}3.54%{-webkit-transform: rotate(20deg);transform: rotate(20deg);}7.58%{-webkit-transform: rotate(0deg);transform: rotate(0deg);}11.62%{-webkit-transform: rotate(20deg);transform: rotate(20deg);}15.15%{-webkit-transform: rotate(0deg);transform: rotate(0deg);}19.19%{-webkit-transform: rotate(20deg);transform: rotate(20deg);}22.73%{-webkit-transform: rotate(0deg);transform: rotate(0deg);}26.26%{-webkit-transform: rotate(20deg);transform: rotate(20deg);}30.30%{-webkit-transform: rotate(0deg);transform: rotate(0deg);}34.34%{-webkit-transform: rotate(20deg);transform: rotate(20deg);}37.88%{-webkit-transform: rotate(0deg);transform: rotate(0deg);}41.92%{-webkit-transform: rotate(20deg);transform: rotate(20deg);}45.45%{-webkit-transform: rotate(0deg);transform: rotate(0deg);}53.03%{-webkit-transform: rotate(0deg);transform: rotate(0deg);}60.61%{-webkit-transform: rotate(0deg);transform: rotate(0deg);}68.18%{-webkit-transform: rotate(60deg);transform: rotate(60deg);}75.76%{-webkit-transform: rotate(60deg);transform: rotate(60deg);}83.33%{-webkit-transform: rotate(0deg);transform: rotate(0deg);}90.91%{-webkit-transform: rotate(0deg);transform: rotate(0deg);}96.46%{-webkit-transform: rotate(0deg);transform: rotate(0deg);}100%{-webkit-transform: rotate(0deg);transform: rotate(0deg);}}@-webkit-keyframes H1sl4BSaHWQ_rkKpIaH-m_Animation{0%{-webkit-transform: rotate(10deg);transform: rotate(10deg);}7.58%{-webkit-transform: rotate(0deg);transform: rotate(0deg);}15.15%{-webkit-transform: rotate(10deg);transform: rotate(10deg);}22.73%{-webkit-transform: rotate(0deg);transform: rotate(0deg);}30.30%{-webkit-transform: rotate(10deg);transform: rotate(10deg);}37.88%{-webkit-transform: rotate(0deg);transform: rotate(0deg);}45.45%{-webkit-transform: rotate(10deg);transform: rotate(10deg);}53.03%{-webkit-transform: rotate(75deg);transform: rotate(75deg);}60.61%{-webkit-transform: rotate(75deg);transform: rotate(75deg);}68.18%{-webkit-transform: rotate(10deg);transform: rotate(10deg);}75.76%{-webkit-transform: rotate(10deg);transform: rotate(10deg);}83.33%{-webkit-transform: rotate(75deg);transform: rotate(75deg);}90.91%{-webkit-transform: rotate(75deg);transform: rotate(75deg);}96.46%{-webkit-transform: rotate(75deg);transform: rotate(75deg);}100%{-webkit-transform: rotate(10deg);transform: rotate(10deg);}}@keyframes H1sl4BSaHWQ_rkKpIaH-m_Animation{0%{-webkit-transform: rotate(10deg);transform: rotate(10deg);}7.58%{-webkit-transform: rotate(0deg);transform: rotate(0deg);}15.15%{-webkit-transform: rotate(10deg);transform: rotate(10deg);}22.73%{-webkit-transform: rotate(0deg);transform: rotate(0deg);}30.30%{-webkit-transform: rotate(10deg);transform: rotate(10deg);}37.88%{-webkit-transform: rotate(0deg);transform: rotate(0deg);}45.45%{-webkit-transform: rotate(10deg);transform: rotate(10deg);}53.03%{-webkit-transform: rotate(75deg);transform: rotate(75deg);}60.61%{-webkit-transform: rotate(75deg);transform: rotate(75deg);}68.18%{-webkit-transform: rotate(10deg);transform: rotate(10deg);}75.76%{-webkit-transform: rotate(10deg);transform: rotate(10deg);}83.33%{-webkit-transform: rotate(75deg);transform: rotate(75deg);}90.91%{-webkit-transform: rotate(75deg);transform: rotate(75deg);}96.46%{-webkit-transform: rotate(75deg);transform: rotate(75deg);}100%{-webkit-transform: rotate(10deg);transform: rotate(10deg);}}@-webkit-keyframes H1sl4BSaHWQ_rydTLpS-7_Animation{0%{-webkit-transform: translate(10px, -10px);transform: translate(10px, -10px);}7.58%{-webkit-transform: translate(10px, -10px);transform: translate(10px, -10px);}15.15%{-webkit-transform: translate(10px, -10px);transform: translate(10px, -10px);}22.73%{-webkit-transform: translate(10px, -10px);transform: translate(10px, -10px);}30.30%{-webkit-transform: translate(10px, -10px);transform: translate(10px, -10px);}37.88%{-webkit-transform: translate(10px, -10px);transform: translate(10px, -10px);}45.45%{-webkit-transform: translate(10px, -10px);transform: translate(10px, -10px);}53.03%{-webkit-transform: translate(100px, -15px);transform: translate(100px, -15px);}60.61%{-webkit-transform: translate(100px, -15px);transform: translate(100px, -15px);}68.18%{-webkit-transform: translate(50px, -50px);transform: translate(50px, -50px);}75.76%{-webkit-transform: translate(50px, -50px);transform: translate(50px, -50px);}83.33%{-webkit-transform: translate(100px, -15px);transform: translate(100px, -15px);}90.91%{-webkit-transform: translate(100px, -15px);transform: translate(100px, -15px);}96.46%{-webkit-transform: translate(100px, -15px);transform: translate(100px, -15px);}100%{-webkit-transform: translate(10px, -10px);transform: translate(10px, -10px);}}@keyframes H1sl4BSaHWQ_rydTLpS-7_Animation{0%{-webkit-transform: translate(10px, -10px);transform: translate(10px, -10px);}7.58%{-webkit-transform: translate(10px, -10px);transform: translate(10px, -10px);}15.15%{-webkit-transform: translate(10px, -10px);transform: translate(10px, -10px);}22.73%{-webkit-transform: translate(10px, -10px);transform: translate(10px, -10px);}30.30%{-webkit-transform: translate(10px, -10px);transform: translate(10px, -10px);}37.88%{-webkit-transform: translate(10px, -10px);transform: translate(10px, -10px);}45.45%{-webkit-transform: translate(10px, -10px);transform: translate(10px, -10px);}53.03%{-webkit-transform: translate(100px, -15px);transform: translate(100px, -15px);}60.61%{-webkit-transform: translate(100px, -15px);transform: translate(100px, -15px);}68.18%{-webkit-transform: translate(50px, -50px);transform: translate(50px, -50px);}75.76%{-webkit-transform: translate(50px, -50px);transform: translate(50px, -50px);}83.33%{-webkit-transform: translate(100px, -15px);transform: translate(100px, -15px);}90.91%{-webkit-transform: translate(100px, -15px);transform: translate(100px, -15px);}96.46%{-webkit-transform: translate(100px, -15px);transform: translate(100px, -15px);}100%{-webkit-transform: translate(10px, -10px);transform: translate(10px, -10px);}}@-webkit-keyframes H1Vl4rH6rbQ_HJXShRH-7_Animation{0%{-webkit-transform: scale(1, 1);transform: scale(1, 1);}7.58%{-webkit-transform: scale(1, 0.85);transform: scale(1, 0.85);}15.15%{-webkit-transform: scale(1, 1);transform: scale(1, 1);}100%{-webkit-transform: scale(1, 1);transform: scale(1, 1);}}@keyframes H1Vl4rH6rbQ_HJXShRH-7_Animation{0%{-webkit-transform: scale(1, 1);transform: scale(1, 1);}7.58%{-webkit-transform: scale(1, 0.85);transform: scale(1, 0.85);}15.15%{-webkit-transform: scale(1, 1);transform: scale(1, 1);}100%{-webkit-transform: scale(1, 1);transform: scale(1, 1);}}@-webkit-keyframes B1-eNSH6HWQ_BkBkaCrbm_Animation{0%{-webkit-transform: translate(0px, 0px);transform: translate(0px, 0px);}19.70%{-webkit-transform: translate(0px, 0px);transform: translate(0px, 0px);}22.73%{-webkit-transform: translate(0px, -10px);transform: translate(0px, -10px);}25.76%{-webkit-transform: translate(0px, 0px);transform: translate(0px, 0px);}28.79%{-webkit-transform: translate(0px, -10px);transform: translate(0px, -10px);}32.32%{-webkit-transform: translate(0px, 0px);transform: translate(0px, 0px);}100%{-webkit-transform: translate(0px, 0px);transform: translate(0px, 0px);}}@keyframes B1-eNSH6HWQ_BkBkaCrbm_Animation{0%{-webkit-transform: translate(0px, 0px);transform: translate(0px, 0px);}19.70%{-webkit-transform: translate(0px, 0px);transform: translate(0px, 0px);}22.73%{-webkit-transform: translate(0px, -10px);transform: translate(0px, -10px);}25.76%{-webkit-transform: translate(0px, 0px);transform: translate(0px, 0px);}28.79%{-webkit-transform: translate(0px, -10px);transform: translate(0px, -10px);}32.32%{-webkit-transform: translate(0px, 0px);transform: translate(0px, 0px);}100%{-webkit-transform: translate(0px, 0px);transform: translate(0px, 0px);}}@-webkit-keyframes SJz4Hr6BbQ_SkrjSprZ7_Animation{0%{-webkit-transform: rotate(-10deg);transform: rotate(-10deg);}7.58%{-webkit-transform: rotate(10deg);transform: rotate(10deg);}15.15%{-webkit-transform: rotate(-10deg);transform: rotate(-10deg);}22.73%{-webkit-transform: rotate(10deg);transform: rotate(10deg);}30.30%{-webkit-transform: rotate(-10deg);transform: rotate(-10deg);}37.88%{-webkit-transform: rotate(10deg);transform: rotate(10deg);}45.45%{-webkit-transform: rotate(-10deg);transform: rotate(-10deg);}53.03%{-webkit-transform: rotate(-10deg);transform: rotate(-10deg);}60.61%{-webkit-transform: rotate(-10deg);transform: rotate(-10deg);}68.18%{-webkit-transform: rotate(10deg);transform: rotate(10deg);}75.76%{-webkit-transform: rotate(10deg);transform: rotate(10deg);}83.33%{-webkit-transform: rotate(-10deg);transform: rotate(-10deg);}90.91%{-webkit-transform: rotate(-10deg);transform: rotate(-10deg);}98.48%{-webkit-transform: rotate(-10deg);transform: rotate(-10deg);}100%{-webkit-transform: rotate(-10deg);transform: rotate(-10deg);}}@keyframes SJz4Hr6BbQ_SkrjSprZ7_Animation{0%{-webkit-transform: rotate(-10deg);transform: rotate(-10deg);}7.58%{-webkit-transform: rotate(10deg);transform: rotate(10deg);}15.15%{-webkit-transform: rotate(-10deg);transform: rotate(-10deg);}22.73%{-webkit-transform: rotate(10deg);transform: rotate(10deg);}30.30%{-webkit-transform: rotate(-10deg);transform: rotate(-10deg);}37.88%{-webkit-transform: rotate(10deg);transform: rotate(10deg);}45.45%{-webkit-transform: rotate(-10deg);transform: rotate(-10deg);}53.03%{-webkit-transform: rotate(-10deg);transform: rotate(-10deg);}60.61%{-webkit-transform: rotate(-10deg);transform: rotate(-10deg);}68.18%{-webkit-transform: rotate(10deg);transform: rotate(10deg);}75.76%{-webkit-transform: rotate(10deg);transform: rotate(10deg);}83.33%{-webkit-transform: rotate(-10deg);transform: rotate(-10deg);}90.91%{-webkit-transform: rotate(-10deg);transform: rotate(-10deg);}98.48%{-webkit-transform: rotate(-10deg);transform: rotate(-10deg);}100%{-webkit-transform: rotate(-10deg);transform: rotate(-10deg);}}@-webkit-keyframes BJbEHHaHbX_ryAYSaBW7_Animation{0%{-webkit-transform: translate(0px, 75px);transform: translate(0px, 75px);}100%{-webkit-transform: translate(0px, 75px);transform: translate(0px, 75px);}}@keyframes BJbEHHaHbX_ryAYSaBW7_Animation{0%{-webkit-transform: translate(0px, 75px);transform: translate(0px, 75px);}100%{-webkit-transform: translate(0px, 75px);transform: translate(0px, 75px);}}#BkNHBpSbm *{-webkit-animation-duration: 6.6s;animation-duration: 6.6s;-webkit-animation-iteration-count: infinite;animation-iteration-count: infinite;-webkit-animation-timing-function: cubic-bezier(0, 0, 1, 1);animation-timing-function: cubic-bezier(0, 0, 1, 1);}#HkxVrS6S-7{stroke: none;stroke-width: 1;fill: none;}#BJbEHHaHbX{-webkit-transform:  translate(-38.000000px, -1.000000px);transform:  translate(-38.000000px, -1.000000px);}#SJz4Hr6BbQ{-webkit-transform:  translate(139.000000px, 1.000000px);transform:  translate(139.000000px, 1.000000px);}#B1QVrH6SZX{fill: #D84C4E;}#B1ENHr6r-Q{-webkit-transform:  translate(58.531391px, 106.906245px);transform:  translate(58.531391px, 106.906245px);}#B1SNSBpSWQ{fill: #FF717F;}#HJ84HHarWX{fill: #5E191E;}#ryDVSBaHWm{-webkit-transform:  translate(98.450350px, 10.542974px) scale(-1, 1) translate(-98.450350px, -10.542974px) translate(74.450350px, 7.042974px);transform:  translate(98.450350px, 10.542974px) scale(-1, 1) translate(-98.450350px, -10.542974px) translate(74.450350px, 7.042974px);fill: #FFFFFF;}#r1tNHrTHW7{-webkit-transform:  translate(7.730231px, 3.204985px) rotate(4.900000deg) translate(-7.730231px, -3.204985px);transform:  translate(7.730231px, 3.204985px) rotate(4.900000deg) translate(-7.730231px, -3.204985px);}#SJcNHBTBWX{-webkit-transform:  translate(24.285218px, 4.173684px) rotate(3.000000deg) translate(-24.285218px, -4.173684px);transform:  translate(24.285218px, 4.173684px) rotate(3.000000deg) translate(-24.285218px, -4.173684px);}#Hko4SS6SZX{-webkit-transform:  translate(24.258129px, 7.042974px);transform:  translate(24.258129px, 7.042974px);fill: #FFFFFF;}#rJ6ErS6HbX{-webkit-transform:  translate(7.730231px, 3.204985px) rotate(4.900000deg) translate(-7.730231px, -3.204985px);transform:  translate(7.730231px, 3.204985px) rotate(4.900000deg) translate(-7.730231px, -3.204985px);}#H1CEBrar-Q{-webkit-transform:  translate(24.285218px, 4.173684px) rotate(3.000000deg) translate(-24.285218px, -4.173684px);transform:  translate(24.285218px, 4.173684px) rotate(3.000000deg) translate(-24.285218px, -4.173684px);}#rk1eVSrTSW7{fill: #B4383C;}#H1ee4SSprbX{fill: #B4383C;}#B1-eNSH6HWQ{-webkit-transform:  translate(55.000000px, 50.000000px);transform:  translate(55.000000px, 50.000000px);fill: #B4383C;}#H1Vl4rH6rbQ{-webkit-transform:  translate(71.000000px, 70.000000px);transform:  translate(71.000000px, 70.000000px);}#r1SxNSraS-7{stroke: #882428;fill: #FFFFFF;}#SyLgVSr6HZm{fill: #882428;}#H1DgVrSTr-X{fill: #B4383C;}#H1OlESH6H-m{stroke: #882428;fill: #FFFFFF;}#BkYgEHSaH-X{fill: #882428;}#Sy9eNBSaBbm{fill: #B4383C;}#H1sl4BSaHWQ{-webkit-transform:  translate(122.500000px, 121.500000px) scale(-1, 1) rotate(-35.000000deg) translate(-122.500000px, -121.500000px) translate(26.000000px, 46.000000px);transform:  translate(122.500000px, 121.500000px) scale(-1, 1) rotate(-35.000000deg) translate(-122.500000px, -121.500000px) translate(26.000000px, 46.000000px);}#H1heVrBTSbm{fill: #D84C4E;}#BkpeVBB6rZX{-webkit-transform:  translate(71.000000px, 0.000000px);transform:  translate(71.000000px, 0.000000px);}#ryAeVSB6BZX{fill: #D84C4E;}#Bk1ZVrBTrWQ{fill: #B4383C;}#H1l-EHBTBbX{-webkit-transform:  translate(427.500000px, 114.500000px) rotate(-30.000000deg) translate(-427.500000px, -114.500000px) translate(331.000000px, 39.000000px);transform:  translate(427.500000px, 114.500000px) rotate(-30.000000deg) translate(-427.500000px, -114.500000px) translate(331.000000px, 39.000000px);}#HJbZEHSaSWX{fill: #D84C4E;}#SyfW4SS6Sb7{-webkit-transform:  translate(71.000000px, 0.000000px);transform:  translate(71.000000px, 0.000000px);}#BJQWEHr6SZ7{fill: #D84C4E;}#BJ4-VHB6B-X{fill: #B4383C;}#BJbEHHaHbX_ryAYSaBW7{-webkit-animation-name: BJbEHHaHbX_ryAYSaBW7_Animation;animation-name: BJbEHHaHbX_ryAYSaBW7_Animation;-webkit-transform-origin: 50% 50%;transform-origin: 50% 50%;transform-box: fill-box;-webkit-transform: translate(0px, 75px);transform: translate(0px, 75px);}#SJz4Hr6BbQ_SkrjSprZ7{-webkit-animation-name: SJz4Hr6BbQ_SkrjSprZ7_Animation;animation-name: SJz4Hr6BbQ_SkrjSprZ7_Animation;-webkit-transform-origin: 50% 50%;transform-origin: 50% 50%;transform-box: fill-box;-webkit-transform: rotate(-10deg);transform: rotate(-10deg);}#B1-eNSH6HWQ_BkBkaCrbm{-webkit-animation-name: B1-eNSH6HWQ_BkBkaCrbm_Animation;animation-name: B1-eNSH6HWQ_BkBkaCrbm_Animation;-webkit-transform-origin: 50% 50%;transform-origin: 50% 50%;transform-box: fill-box;-webkit-transform: translate(0px, 0px);transform: translate(0px, 0px);}#H1Vl4rH6rbQ_HJXShRH-7{-webkit-animation-name: H1Vl4rH6rbQ_HJXShRH-7_Animation;animation-name: H1Vl4rH6rbQ_HJXShRH-7_Animation;-webkit-animation-timing-function: cubic-bezier(0.42, 0, 0.58, 1);animation-timing-function: cubic-bezier(0.42, 0, 0.58, 1);-webkit-transform-origin: 50% 50%;transform-origin: 50% 50%;transform-box: fill-box;-webkit-transform: scale(1, 1);transform: scale(1, 1);}#H1sl4BSaHWQ_rydTLpS-7{-webkit-animation-name: H1sl4BSaHWQ_rydTLpS-7_Animation;animation-name: H1sl4BSaHWQ_rydTLpS-7_Animation;-webkit-animation-timing-function: cubic-bezier(0.42, 0, 0.58, 1);animation-timing-function: cubic-bezier(0.42, 0, 0.58, 1);-webkit-transform-origin: 50% 50%;transform-origin: 50% 50%;transform-box: fill-box;-webkit-transform: translate(10px, -10px);transform: translate(10px, -10px);}#H1sl4BSaHWQ_rkKpIaH-m{-webkit-animation-name: H1sl4BSaHWQ_rkKpIaH-m_Animation;animation-name: H1sl4BSaHWQ_rkKpIaH-m_Animation;-webkit-animation-timing-function: cubic-bezier(0.42, 0, 0.58, 1);animation-timing-function: cubic-bezier(0.42, 0, 0.58, 1);-webkit-transform-origin: 50% 50%;transform-origin: 50% 50%;transform-box: fill-box;-webkit-transform: rotate(10deg);transform: rotate(10deg);}#BkpeVBB6rZX_SJk-q6SWX{-webkit-animation-name: BkpeVBB6rZX_SJk-q6SWX_Animation;animation-name: BkpeVBB6rZX_SJk-q6SWX_Animation;-webkit-animation-timing-function: cubic-bezier(0.42, 0, 0.58, 1);animation-timing-function: cubic-bezier(0.42, 0, 0.58, 1);-webkit-transform-origin: 50% 50%;transform-origin: 50% 50%;transform-box: fill-box;-webkit-transform: rotate(0deg);transform: rotate(0deg);}#BkpeVBB6rZX_B1gZcaHZX{-webkit-animation-name: BkpeVBB6rZX_B1gZcaHZX_Animation;animation-name: BkpeVBB6rZX_B1gZcaHZX_Animation;-webkit-animation-timing-function: cubic-bezier(0.42, 0, 0.58, 1);animation-timing-function: cubic-bezier(0.42, 0, 0.58, 1);-webkit-transform-origin: 50% 50%;transform-origin: 50% 50%;transform-box: fill-box;-webkit-transform: translate(0px, 0px);transform: translate(0px, 0px);}#H1l-EHBTBbX_ByA6UTBWX{-webkit-animation-name: H1l-EHBTBbX_ByA6UTBWX_Animation;animation-name: H1l-EHBTBbX_ByA6UTBWX_Animation;-webkit-animation-timing-function: cubic-bezier(0.42, 0, 0.58, 1);animation-timing-function: cubic-bezier(0.42, 0, 0.58, 1);-webkit-transform-origin: 50% 50%;transform-origin: 50% 50%;transform-box: fill-box;-webkit-transform: translate(-10px, 10px);transform: translate(-10px, 10px);}#H1l-EHBTBbX_HJyC8Tr-7{-webkit-animation-name: H1l-EHBTBbX_HJyC8Tr-7_Animation;animation-name: H1l-EHBTBbX_HJyC8Tr-7_Animation;-webkit-transform-origin: 50% 50%;transform-origin: 50% 50%;transform-box: fill-box;-webkit-transform: rotate(10deg);transform: rotate(10deg);}#SyfW4SS6Sb7_SyXPu6BWQ{-webkit-animation-name: SyfW4SS6Sb7_SyXPu6BWQ_Animation;animation-name: SyfW4SS6Sb7_SyXPu6BWQ_Animation;-webkit-animation-timing-function: cubic-bezier(0.42, 0, 0.58, 1);animation-timing-function: cubic-bezier(0.42, 0, 0.58, 1);-webkit-transform-origin: 50% 50%;transform-origin: 50% 50%;transform-box: fill-box;-webkit-transform: rotate(0deg);transform: rotate(0deg);}#SyfW4SS6Sb7_rJKRud6S-m{-webkit-animation-name: SyfW4SS6Sb7_rJKRud6S-m_Animation;animation-name: SyfW4SS6Sb7_rJKRud6S-m_Animation;-webkit-animation-timing-function: cubic-bezier(0.42, 0, 0.58, 1);animation-timing-function: cubic-bezier(0.42, 0, 0.58, 1);-webkit-transform-origin: 50% 50%;transform-origin: 50% 50%;transform-box: fill-box;-webkit-transform: translate(0px, 0px);transform: translate(0px, 0px);}</style>
    <!-- Generator: Sketch 50.2 (55047) - http://www.bohemiancoding.com/sketch -->
    <title>dance01</title>
    <desc>Created with Sketch.</desc>
    <defs/>
    <g id="HkxVrS6S-7" fill-rule="evenodd">
        <g id="BJbEHHaHbX_ryAYSaBW7" data-animator-group="true" data-animator-type="0"><g id="BJbEHHaHbX" fill-rule="nonzero">
            <g id="SJz4Hr6BbQ_SkrjSprZ7" data-animator-group="true" data-animator-type="1"><g id="SJz4Hr6BbQ">
                <path d="M247.328878,335.156233 C231.175294,313.53985 216.870035,241.664894 216.870035,241.664894 C219.00716,247.439529 229.057422,255.370028 229.057422,255.370028 C221.356072,236.794952 226.920298,174.04392 226.920298,174.04392 L245.133992,151.638336 C237.971737,138.645408 221.471592,129.271251 221.471592,129.271251 C226.092403,127.096138 237.355628,133.71772 237.355628,133.71772 C234.756423,128.193319 232.888845,128.058578 225.976883,118.318693 C219.064921,108.578809 222.549781,81.9962396 222.549781,81.9962396 C224.648399,81.0915469 228.210274,86.923928 228.210274,86.923928 C230.251132,80.8413127 228.441315,72.5450873 228.441315,72.5450873 C232.29199,71.9483751 240.166621,83.9211184 240.166621,83.9211184 C243.670736,75.3169122 238.549338,64.4221009 238.549338,64.4221009 C245.114739,63.4596618 262.385018,75.682639 262.385018,75.682639 C262.385018,75.682639 258.341809,58.0507537 244.575644,54.5089777 C236.650029,52.3192469 228.170776,53.5183288 221.163538,57.8197683 C221.163538,32.5461163 184.582122,21.6513052 184.582122,21.6513052 C186.39194,19.2452073 197.212338,21.2470808 197.212338,21.2470808 C187.701169,9.44757682 169.410462,7.29171311 169.410462,7.29171311 C170.738945,5.48232752 175.321248,4.51988836 175.321248,4.51988836 C175.321248,4.51988836 174.58962,3.30721504 166.175895,1.03585866 C157.762169,-1.23549773 142.224694,2.71050277 142.224694,2.71050277 L131.442803,0.785624479 L120.641659,2.71050277 C120.641659,2.71050277 105.123437,-1.25474651 96.7097115,1.03585866 C88.2959858,3.32646382 87.5643572,4.51988836 87.5643572,4.51988836 C87.5643572,4.51988836 92.1274079,5.48232752 93.4558904,7.29171311 C93.4558904,7.29171311 75.1651826,9.44757682 65.6540146,21.2470808 C65.6540146,21.2470808 76.4936658,19.3222025 78.2842296,21.6513052 C78.2842296,21.6513052 41.702814,32.5461163 41.702814,57.8197683 C34.7023266,53.5193053 26.2293204,52.3201208 18.3099612,54.5089777 C4.52454353,58.0507537 0.500587795,75.682639 0.500587795,75.682639 C0.500587795,75.682639 17.8286268,63.4596618 24.3170148,64.4221009 C24.3170148,64.4221009 19.21487,75.3169122 22.6997311,83.9211184 C22.6997311,83.9211184 30.5743622,71.9483751 34.4250376,72.5450873 C34.4250376,72.5450873 32.6152202,80.8413127 34.6753315,86.923928 C34.6753315,86.923928 38.2179528,81.1492932 40.3165709,81.9962396 C40.3165709,81.9962396 43.8206854,108.636556 36.8894698,118.318693 C29.9582542,128.000831 28.10993,128.135572 25.5299775,133.71772 C25.5299775,133.71772 36.7739495,127.096138 41.4140133,129.271251 C41.4140133,129.271251 24.990883,138.645408 17.8286268,151.638336 L36.0230679,174.04392 C36.0230679,174.04392 41.5102802,236.794952 33.9051964,255.370028 C33.9051964,255.370028 43.9554591,247.439529 46.0733305,241.664894 C46.0733305,241.664894 31.7680716,313.53985 15.6144885,335.156233 C15.6144885,335.156233 24.4517884,333.94356 26.8969673,330.286291 C26.8969673,330.286291 24.9716296,344.973112 20.9091671,352.730372 C18.5006747,356.969683 17.0607299,361.689472 16.6926776,366.550998 C16.3888058,372.226812 17.4587434,377.892166 19.8117246,383.066454 C21.3327414,386.396494 22.8345048,389.726533 24.0089608,393.172065 C27.0317409,402.026505 31.5562845,416.982809 29.3228927,422.045239 C29.3228927,422.045239 39.0651014,415.5584 42.0686281,410.149491 C42.0686281,410.149491 33.0387945,433.248031 37.1397637,454.421692 C41.2407329,475.595354 51.8108367,492.072312 56.0273263,493.265736 C60.2438157,494.459161 66.6166834,484.969511 72.7585106,490.147434 C78.9003377,495.325356 95.1309344,498.809385 104.160768,494.709395 C113.190602,490.609404 116.925757,487.144623 118.234986,490.99438 C119.544216,494.844136 124.800388,495.286858 131.442803,492.303297 C138.085218,495.286858 143.322136,494.824888 144.650619,490.99438 C145.979102,487.163872 149.695004,490.628653 158.724838,494.709395 C167.754671,498.790137 184.004521,495.325356 190.127095,490.147434 C196.249669,484.969511 202.64179,494.478409 206.858279,493.265736 C211.074769,492.053063 221.664126,475.595354 225.745842,454.421692 C229.827558,433.248031 220.816977,410.149491 220.816977,410.149491 C223.820504,415.5584 233.581966,422.045239 233.581966,422.045239 C231.329321,417.002058 235.853865,402.045754 238.876645,393.172065 C240.070354,389.726533 241.552864,386.396494 243.073881,383.066454 C245.426863,377.892166 246.4968,372.226812 246.192928,366.550998 C245.822678,361.69249 244.389861,356.974522 241.995692,352.730372 C237.836962,345.030859 236.007892,330.286291 236.007892,330.286291 C238.491578,333.94356 247.328878,335.156233 247.328878,335.156233 Z" id="B1QVrH6SZX"/>
                <g id="B1ENHr6r-Q">
                    <path d="M73.7778136,4.69462269 C98.430841,4.69264066 123.059427,3.14327432 147.518247,0.0556659993 C147.518247,12.6058724 114.498706,22.7884787 73.7778136,22.7884787 C33.0569219,22.7884787 0.0373808249,12.6058724 0.0373808249,0.0556659993 C24.4960862,3.14448559 49.1247483,4.69385673 73.7778136,4.69462269 Z" id="B1SNSBpSWQ"/>
                    <path d="M73.7778136,9.50681839 C52.5535275,9.5030025 31.3445966,8.365704 10.2416705,6.09978384 C14.2612113,8.43265282 18.5556615,10.2560654 23.0259126,11.5279406 C36.5032763,15.6856778 54.5244369,17.9762829 73.7585603,17.9762829 C92.9926839,17.9762829 110.956084,15.6856778 124.433448,11.5279406 C128.909542,10.2553044 133.21027,8.43197191 137.236943,6.09978384 C116.15956,8.36296765 94.97641,9.50026218 73.7778136,9.50681839 Z" id="HJ84HHarWX"/>
                    <g id="ryDVSBaHWm">
                        <path d="M33.2890883,2.21361299 L47.632854,2.21361299 L47.632854,4.96618895 C47.632854,6.02926987 46.7708509,6.89106724 45.7075163,6.89106724 L35.2721861,6.89106724 C34.2088516,6.89106724 33.3468484,6.02926987 33.3468484,4.96618895 L33.3468484,2.21361299 L33.2890883,2.21361299 Z" id="SJ_4rSTrZQ"/>
                        <path d="M0.558347877,0.866258288 L14.9021136,0.866258288 L14.9021136,3.61883426 C14.9021136,4.68191519 14.0401106,5.54371256 12.9767759,5.54371256 L2.54144567,5.54371256 C1.47811104,5.54371256 0.616108007,4.68191519 0.616108007,3.61883426 L0.616108007,0.866258288 L0.558347877,0.866258288 Z" id="r1tNHrTHW7"/>
                        <path d="M17.1133351,1.83495688 L31.4571007,1.83495688 L31.4571007,4.58753284 C31.4571007,5.65061377 30.5950978,6.51241113 29.5317631,6.51241113 L19.0964329,6.51241113 C18.0330983,6.51241113 17.1710952,5.65061377 17.1710952,4.58753284 L17.1710952,1.83495688 L17.1133351,1.83495688 Z" id="SJcNHBTBWX"/>
                    </g>
                    <g id="Hko4SS6SZX">
                        <path d="M33.2890883,2.21361299 L47.632854,2.21361299 L47.632854,4.96618895 C47.632854,6.02926987 46.7708509,6.89106724 45.7075163,6.89106724 L35.2721861,6.89106724 C34.2088516,6.89106724 33.3468484,6.02926987 33.3468484,4.96618895 L33.3468484,2.21361299 L33.2890883,2.21361299 Z" id="By34HHpB-Q"/>
                        <path d="M0.558347877,0.866258288 L14.9021136,0.866258288 L14.9021136,3.61883426 C14.9021136,4.68191519 14.0401106,5.54371256 12.9767759,5.54371256 L2.54144567,5.54371256 C1.47811104,5.54371256 0.616108007,4.68191519 0.616108007,3.61883426 L0.616108007,0.866258288 L0.558347877,0.866258288 Z" id="rJ6ErS6HbX"/>
                        <path d="M17.1133351,1.83495688 L31.4571007,1.83495688 L31.4571007,4.58753284 C31.4571007,5.65061377 30.5950978,6.51241113 29.5317631,6.51241113 L19.0964329,6.51241113 C18.0330983,6.51241113 17.1710952,5.65061377 17.1710952,4.58753284 L17.1710952,1.83495688 L17.1133351,1.83495688 Z" id="H1CEBrar-Q"/>
                    </g>
                </g>
                <path d="M205.106222,435.519387 C204.650145,435.136829 204.060167,434.952153 203.467304,435.006365 C202.87444,435.060577 202.327763,435.349191 201.948668,435.808119 C199.118422,439.195905 196.172656,442.564442 193.188382,445.836735 C191.705872,447.472881 190.184855,449.089779 188.606078,450.64893 C187.489383,451.726863 186.353433,452.824043 185.178977,453.786482 C185.271185,452.559164 185.219492,451.325275 185.02495,450.109965 C184.890783,449.085514 184.571094,448.094061 184.081535,447.18415 C183.43976,445.963866 182.250767,445.126041 180.885474,444.932042 C180.543264,444.8544 180.188002,444.8544 179.845792,444.932042 C179.524596,444.987663 179.20891,445.071397 178.902377,445.182276 C178.428957,445.389859 177.96629,445.621137 177.516133,445.875233 C176.714004,446.34183 175.936423,446.849386 175.186475,447.395887 C173.742471,448.454569 172.356228,449.532502 170.989239,450.610433 C168.216752,452.727799 165.559787,454.92216 162.72954,456.808541 C160.46167,458.397041 157.961103,459.624299 155.31699,460.446561 C156.124706,458.997946 156.826092,457.492578 157.415608,455.942346 C157.861048,454.841793 158.171366,453.691302 158.33977,452.516063 C158.472613,451.842423 158.472613,451.149332 158.33977,450.475692 C158.167214,449.607383 157.635777,448.852363 156.876514,448.396823 L156.164139,447.97335 L155.471017,448.589311 C153.160612,450.764423 150.696179,452.862541 148.193241,454.787419 C146.922518,455.73061 145.613288,456.712298 144.342565,457.443751 C143.387457,458.0303 142.366366,458.501959 141.300531,458.848913 C140.973224,458.271449 140.645917,457.732483 140.260849,457.174268 C139.688686,456.32495 139.044534,455.526393 138.335512,454.787419 C136.863427,453.175306 134.901136,452.092922 132.752032,451.707614 L132.482485,451.707614 C130.333381,452.092922 128.37109,453.175306 126.899006,454.787419 C126.195432,455.531169 125.551655,456.329262 124.973668,457.174268 C124.607854,457.732483 124.261293,458.271449 123.933986,458.848913 C122.874405,458.50156 121.859734,458.029884 120.911206,457.443751 C119.582723,456.635302 118.292747,455.73061 117.06053,454.787419 C114.52364,452.847659 112.088087,450.778897 109.763501,448.589311 L109.070379,447.97335 L108.377257,448.396823 C107.612341,448.850165 107.07408,449.604948 106.894747,450.475692 C106.761905,451.149332 106.761905,451.842423 106.894747,452.516063 C107.063151,453.691302 107.373469,454.841793 107.81891,455.942346 C108.320501,457.51121 108.918493,459.04762 109.609474,460.542805 C106.966959,459.716534 104.466988,458.489568 102.196923,456.904785 C99.3666772,454.979907 96.7097115,452.824043 93.9372252,450.706677 C92.5702349,449.628745 91.1839918,448.550814 89.7399888,447.49213 C89.0083609,446.972413 88.2574787,446.452696 87.4295839,445.971476 C87.0252625,445.721242 86.4861685,445.509506 86.0240872,445.27852 C85.7190737,445.162851 85.4029238,445.078993 85.0806718,445.028286 C84.7384618,444.950644 84.3831996,444.950644 84.0409895,445.028286 C82.7448284,445.198224 81.5967153,445.949279 80.9219425,447.068657 C80.4406943,447.982087 80.1214953,448.972017 79.9785271,449.994472 C79.7806533,451.209586 79.7353784,452.444654 79.8437531,453.67099 C78.6500439,452.70855 77.5140946,451.611369 76.3973988,450.533438 C74.8378753,448.974287 73.3168585,447.357389 71.8150952,445.721242 C68.8308217,442.448949 65.9043085,439.080412 63.0740621,435.692626 C63.0334385,435.626177 62.9812783,435.567511 62.9200351,435.519387 C62.3456745,434.962357 61.5177,434.753983 60.7480016,434.972759 C59.978303,435.191536 59.3838159,435.804225 59.1884779,436.580032 C58.9931399,437.355841 59.2266275,438.176903 59.800988,438.733934 C63.0355553,441.871485 66.3086294,444.932042 69.6779703,447.915603 C71.3722675,449.417009 73.0665647,450.879916 74.8378753,452.304326 C76.6030447,453.757852 78.497808,455.0465 80.4983683,456.154083 L81.8653579,456.885536 L81.7498374,455.384132 C81.9755997,453.746826 82.310064,452.12635 82.7510134,450.533438 C82.9406849,449.854903 83.2259241,449.206785 83.5981618,448.60856 C83.9639761,448.088842 84.2142699,447.934852 84.4645637,447.934852 C84.543661,447.89683 84.6357603,447.89683 84.7148575,447.934852 C84.8111245,447.934852 84.8688844,447.934852 85.0229112,447.934852 C85.3564557,448.060965 85.6785329,448.215523 85.9855801,448.396823 C86.7041342,448.791377 87.3984908,449.228461 88.0649448,449.70574 C89.4511879,450.668179 90.8181782,451.630618 92.2236741,452.766297 C95.0055634,454.938447 97.91831,456.93767 100.945454,458.752668 C102.49432,459.687293 104.124683,460.47973 105.816559,461.120268 C107.552044,461.81303 109.397116,462.191083 111.265264,462.236698 L112.844041,462.236698 L112.016146,460.947029 C111.021745,459.044738 110.190859,457.061391 109.53246,455.018405 C109.190526,454.055105 108.970609,453.052786 108.877845,452.034843 C108.826432,451.69027 108.826432,451.339981 108.877845,450.995409 C110.937957,452.920287 113.017322,454.845165 115.250713,456.616053 C116.559943,457.636239 117.888425,458.540932 119.313175,459.52262 C120.841969,460.566013 122.574145,461.274461 124.396067,461.601488 L125.339483,461.71698 L125.78231,460.735293 C126.104007,459.898169 126.490236,459.087283 126.937513,458.309946 C127.381629,457.518654 127.890365,456.765391 128.45853,456.057838 C129.468959,454.698378 130.884528,453.694238 132.501739,453.18977 C134.1238,453.684406 135.542199,454.690553 136.544947,456.057838 C137.119517,456.76065 137.628639,457.514488 138.065965,458.309946 C138.513241,459.087283 138.899469,459.898169 139.221167,460.735293 L139.663994,461.71698 L140.60741,461.601488 C142.429332,461.274461 144.161508,460.566013 145.690302,459.52262 C147.093711,458.624491 148.449679,457.654336 149.752764,456.616053 C151.986156,454.825917 154.084774,452.958784 156.125631,450.995409 C156.177045,451.339981 156.177045,451.69027 156.125631,452.034843 C156.030358,453.050642 155.817136,454.0519 155.49027,455.018405 C154.825229,457.061849 153.987911,459.045174 152.987332,460.947029 L152.159436,462.467683 L153.738213,462.467683 C155.600146,462.422253 157.438932,462.044152 159.167665,461.351254 C160.85954,460.710716 162.489903,459.918278 164.038769,458.983653 C167.072135,457.168753 169.991294,455.169542 172.779802,452.997282 C174.166045,451.957848 175.552289,450.899165 176.938532,449.936726 C177.601361,449.463951 178.289051,449.027019 178.998644,448.627808 C179.305691,448.446508 179.627768,448.29195 179.961312,448.165838 C180.134593,448.165838 180.173099,448.165838 180.269366,448.165838 C180.348463,448.127816 180.440563,448.127816 180.51966,448.165838 C180.789207,448.165838 181.039501,448.319828 181.405315,448.839545 C181.770841,449.438852 182.049577,450.08692 182.23321,450.764423 C182.671539,452.35911 183.012313,453.979006 183.25364,455.615117 L183.138119,457.116522 L184.505109,456.385068 C186.511821,455.277661 188.412992,453.989039 190.184855,452.535311 C191.94333,451.110902 193.65688,449.647994 195.325506,448.146589 C198.694848,445.163027 201.967922,442.102471 205.221742,438.964919 L205.37577,438.79168 C205.792692,438.330227 206.000218,437.716967 205.94917,437.097227 C205.898119,436.47749 205.593038,435.906432 205.106222,435.519387 Z" id="rk1eVSrTSW7"/>
                <path d="M132.463232,493.265736 C131.931564,493.265736 131.500563,492.834837 131.500563,492.303297 L131.500563,452.55456 C131.500563,452.02302 131.931564,451.592121 132.463232,451.592121 C132.994899,451.592121 133.4259,452.02302 133.4259,452.55456 L133.4259,492.284048 C133.431075,492.542621 133.331939,492.792395 133.15084,492.977074 C132.969741,493.161751 132.721919,493.265788 132.463232,493.265736 Z" id="H1ee4SSprbX"/>
                <g id="B1-eNSH6HWQ_BkBkaCrbm" data-animator-group="true" data-animator-type="0"><g id="B1-eNSH6HWQ">
                    <path d="M33.0754254,0.115384615 L37.0562435,3.73076923 C37.0562435,3.73076923 19.7483385,-0.115384615 11.0943861,6.36538461 L19.2675634,7.57692311 C10.8070601,10.3605254 3.96783521,16.6735785 0.517333087,24.8846154 C0.517333087,24.8846154 27.7868988,1.80769231 55.0756956,15.2692308 C55.0564646,15.25 47.6332965,-0.615384615 33.0754254,0.115384615 Z" id="H1fxVSrar-7"/>
                    <path d="M135.826687,7.55769231 L143.999865,6.34615385 C135.345912,-0.134615385 118.038007,3.71153846 118.038007,3.71153846 L121.980363,0.115384615 C107.441724,-0.596153846 99.9800933,15.2692308 99.9800933,15.2692308 C127.26889,1.80769231 154.557687,24.8846154 154.557687,24.8846154 C151.101129,16.6807234 144.27459,10.3659017 135.826687,7.55769231 Z" id="rymeESHTSb7"/>
                </g></g>
                <g id="H1Vl4rH6rbQ_HJXShRH-7" data-animator-group="true" data-animator-type="2"><g id="H1Vl4rH6rbQ">
                    <ellipse id="r1SxNSraS-7" cx="21.525" cy="11.7270485" rx="11.6037736" ry="11.7075359"/>
                    <ellipse id="SyLgVSr6HZm" cx="21.525" cy="11.7270485" rx="4.37075472" ry="4.40983852"/>
                    <path d="M0.696226415,27.571247 C7.43387982,25.5951995 14.2869099,24.0442043 21.2155661,22.9272578 C28.1773842,21.7412674 35.2389426,21.257572 42.2957547,21.4833283 C43.0068911,21.5252579 43.5556553,22.130836 43.5334906,22.8492075 C43.5184428,23.1960581 43.3672706,23.5226252 43.1133108,23.7568934 C42.8593508,23.9911616 42.5234625,24.1138889 42.179717,24.0980114 C35.2927546,23.6566626 28.3792202,23.9181569 21.5443397,24.8785138 C14.6630261,25.7498788 7.842249,27.0532441 1.12169811,28.7810257 C0.794270828,28.8284055 0.482926866,28.6230042 0.394649227,28.3013733 C0.306371585,27.9797422 0.468643116,27.642013 0.773584905,27.5127093 L0.696226415,27.571247 Z" id="H1DgVrSTr-X"/>
                    <ellipse id="H1OlESH6H-m" cx="101.165566" cy="11.7270485" rx="11.6037736" ry="11.7075359"/>
                    <ellipse id="BkYgEHSaH-X" cx="101.165566" cy="11.7270485" rx="4.37075472" ry="4.40983852"/>
                    <path d="M121.607547,28.8395634 C114.88739,27.1099947 108.066501,25.806608 101.184906,24.9370514 C94.3565018,23.976815 87.4493933,23.7153189 80.5688678,24.156549 C80.1059393,24.1914049 79.6597448,23.9744352 79.3983623,23.5873702 C79.1369798,23.2003052 79.100118,22.7019494 79.301664,22.2800285 C79.50321,21.8581078 79.9125428,21.5767217 80.375472,21.541866 C87.4322588,21.3175303 94.4936768,21.8012162 101.455661,22.9857954 C108.377954,24.1027424 115.224549,25.6537431 121.95566,27.6297847 C122.125517,27.6754101 122.270196,27.7877504 122.357404,27.9417285 C122.444612,28.0957064 122.467086,28.2785026 122.419811,28.4493122 C122.317091,28.7985314 121.954504,28.9988667 121.607547,28.8981011 L121.607547,28.8395634 Z" id="Sy9eNBSaBbm"/>
                </g></g>
            </g></g>
            <g id="H1sl4BSaHWQ_rydTLpS-7" data-animator-group="true" data-animator-type="0"><g id="H1sl4BSaHWQ_rkKpIaH-m" data-animator-group="true" data-animator-type="1"><g id="H1sl4BSaHWQ">
                <path d="M148.931958,138.783472 C140.68239,136.670213 133.257779,133.288999 127.943523,126.12313 C127.604924,125.527445 127.800364,124.770138 128.384778,124.413312 C133.395142,120.810878 137.667706,116.278076 140.970166,111.061358 C142.504969,108.755985 141.929418,110.139209 141.257942,108.986522 C140.586465,107.833836 139.339437,106.738784 138.667961,105.374771 C138.378747,104.884266 138.457666,104.259938 138.859811,103.857067 C142.504969,100.802447 146.898344,99.3423775 150.984758,96.9985809 C153.344518,95.6537801 155.646723,94.2897672 156.260644,91.7730682 C156.260644,91.6001657 156.260644,89.2947919 156.260644,88.4302773 L153.766589,88.6992374 C140.797501,90.3898446 126.408719,86.4707099 120.192765,84.4727198 C123.339531,83.1122479 126.168693,81.1101344 128.499888,78.5940177 L130.418393,76.4615471 L127.617377,76.9994681 C120.239339,78.1629822 112.772289,78.6644719 105.305173,78.4979607 C98.2676391,77.9705932 91.3077375,76.6823352 84.5469572,74.6556717 C72.5179362,71.5242063 59.7982533,67.2976886 55.4816189,65.8376188 C58.5586886,64.431539 61.8700384,63.6107051 65.2468053,63.4169769 L67.1653095,63.2632853 L65.8223565,61.8032156 C65.5345809,61.4958325 58.4744854,54.0033693 43.8362983,51.0640183 C41.2725456,50.524657 38.607795,50.7381307 36.1622816,51.6787846 C33.1206121,53.1129688 30.2609588,54.9059364 27.644123,57.019566 C23.0205278,60.4584145 18.2818224,64.0125316 15.2697708,68.9306614 C13.3512666,72.0813382 12.2385342,75.6162438 10.5694355,78.9014006 C8.32478562,83.2816101 5.12088359,87.1238985 3.0680841,91.6193771 C-0.596258925,99.6689718 -0.135817917,108.909676 0.40136326,117.746941 C0.385378283,119.629912 0.76446896,121.495255 1.5140957,123.222202 C3.2983046,126.584205 7.42308864,127.71768 11.1066167,128.889578 C27.260422,134.115091 41.4381681,146.045398 58.3785602,147.082816 C55.4710978,145.984661 52.8481266,144.244552 50.7045434,141.991783 C60.5144942,145.116846 70.4331609,147.825659 80.4605435,150.118224 C77.2884621,147.55546 74.5540255,144.492829 72.3644558,141.050422 C85.8899103,146.813855 100.412987,151.789619 114.993619,149.964532 C113.109501,149.515254 111.464713,148.369179 110.389209,146.756221 C110.753725,147.294142 118.542852,145.603534 119.521289,145.469055 C120.821859,145.283523 122.14833,145.456202 123.358297,145.968552 C132.112016,144.483252 140.684269,142.074824 148.931958,138.783472 Z" id="H1heVrBTSbm"/>
                <g id="BkpeVBB6rZX_B1gZcaHZX" data-animator-group="true" data-animator-type="0"><g id="BkpeVBB6rZX_SJk-q6SWX" data-animator-group="true" data-animator-type="1"><g id="BkpeVBB6rZX">
                    <path d="M121.712224,47.3946325 C122.19185,65.8952531 109.184392,85.5869831 105.309014,91.0238219 C108.049401,89.8828561 110.500783,88.1435253 112.48422,85.9327896 L114.402723,83.8771645 L114.134133,86.6820359 C112.925475,99.1502629 105.309014,110.139209 96.714115,118.784359 C92.19541,123.359485 87.226856,127.465953 81.884077,131.04126 C78.3924,133.346633 70.219571,138.380031 65.826197,137.208134 C68.33025,137.872289 70.909815,138.208093 73.500214,138.207129 C64.168137,142.016274 54.116674,143.734259 44.051174,143.240527 C42.784962,143.240527 41.326898,142.952356 40.751347,141.81888 L41.825709,140.224331 C40.692015,140.606596 39.47111,140.646682 38.314847,140.339599 C37.754298,140.152535 37.298938,139.736742 37.061346,139.195017 C36.823753,138.653291 36.826105,138.036198 37.067819,137.496305 C37.585815,136.670213 38.986323,135.748064 38.142181,135.152509 C31.148911,136.593106 23.9359804,136.593106 16.9427099,135.152509 C15.0242061,134.76828 12.8179259,133.71165 13.0097761,131.828929 C13.2544986,130.883496 13.7676145,130.029351 14.4870243,129.369864 C16.1127897,127.399566 16.9835107,124.91323 16.9427099,122.357688 C11.379048,121.666075 5.802595,121.217809 0.2133533,121.012886 C0.6444911,121.501493 1.2517629,121.798634 1.901637,121.838979 L1.441196,120.39812 C2.3487042,118.587872 3.7882135,117.09945 5.56598,116.133179 C15.3311666,109.236271 19.8780215,100.072412 25.7102742,89.986404 C30.89464,80.6960573 36.748822,71.796759 43.226217,63.3593426 C45.359019,60.6384315 47.679704,58.0706087 50.171203,55.6747649 C47.216706,55.6747649 42.957627,56.0205709 41.173418,57.6919665 L38.199737,60.4968373 L39.61943,56.6545485 C39.830465,56.0782052 44.876131,42.5533486 50.689199,35.8869775 C53.90909,32.432806 56.309251,28.2956906 57.710924,23.7837677 C59.609023,17.2812107 59.535572,10.3606146 57.499888,3.89992314 L57.212113,2.99698528 L58.11381,2.70881362 C82.613109,-5.28314712 93.970653,11.8918839 96.387969,16.1568245 C98.670989,14.0243542 99.1698,6.68558254 98.920394,2.11325884 L98.920394,0.345805993 L100.455198,1.22953242 C107.515293,5.45605012 121.136673,26.1659869 121.712224,47.3946325 Z" id="ryAeVSB6BZX"/>
                    <path d="M30.947791,85.3756571 C29.547283,83.9540108 29.604838,83.0318613 29.988538,82.3018264 L31.101271,80.130933 C31.868672,78.7284981 32.636074,77.3260624 33.461031,75.9620495 C35.13013,73.2724477 36.895154,70.6596913 38.794473,68.1429921 C40.676272,65.6146912 42.693665,63.1904855 44.837761,60.8810663 C45.931308,59.7283796 47.044041,58.5949044 48.233513,57.5190635 C49.439157,56.3462625 50.809355,55.3560336 52.300742,54.5797126 C52.529635,54.4671432 52.793869,54.4504734 53.035062,54.5333842 C53.276254,54.6162951 53.47455,54.7919645 53.58614,55.0215759 C53.75356,55.4008577 53.66958,55.844279 53.375104,56.1358396 L53.259994,56.2318968 C52.274835,57.2843631 51.376586,58.4151448 50.574089,59.613111 C49.710762,60.8426433 48.86662,62.1105987 48.041663,63.4553998 C46.39175,66.016925 44.780206,68.5784521 43.207033,71.1399774 C41.633859,73.7335223 40.079871,76.3462788 38.621807,78.9782469 C37.873591,80.2846249 37.18293,81.6102143 36.492268,82.9358044 L35.552201,84.8569482 C35.28361,85.5485604 34.746429,86.0480579 32.732,86.0480579 C32.071812,86.0693594 31.430145,85.8275396 30.947791,85.3756571 Z" id="Bk1ZVrBTrWQ"/>
                </g></g></g>
            </g></g></g>
            <g id="H1l-EHBTBbX_ByA6UTBWX" data-animator-group="true" data-animator-type="0"><g id="H1l-EHBTBbX_HJyC8Tr-7" data-animator-group="true" data-animator-type="1"><g id="H1l-EHBTBbX">
                <path d="M148.931958,138.783472 C140.68239,136.670213 133.257779,133.288999 127.943523,126.12313 C127.604924,125.527445 127.800364,124.770138 128.384778,124.413312 C133.395142,120.810878 137.667706,116.278076 140.970166,111.061358 C142.504969,108.755985 141.929418,110.139209 141.257942,108.986522 C140.586465,107.833836 139.339437,106.738784 138.667961,105.374771 C138.378747,104.884266 138.457666,104.259938 138.859811,103.857067 C142.504969,100.802447 146.898344,99.3423775 150.984758,96.9985809 C153.344518,95.6537801 155.646723,94.2897672 156.260644,91.7730682 C156.260644,91.6001657 156.260644,89.2947919 156.260644,88.4302773 L153.766589,88.6992374 C140.797501,90.3898446 126.408719,86.4707099 120.192765,84.4727198 C123.339531,83.1122479 126.168693,81.1101344 128.499888,78.5940177 L130.418393,76.4615471 L127.617377,76.9994681 C120.239339,78.1629822 112.772289,78.6644719 105.305173,78.4979607 C98.2676391,77.9705932 91.3077375,76.6823352 84.5469572,74.6556717 C72.5179362,71.5242063 59.7982533,67.2976886 55.4816189,65.8376188 C58.5586886,64.431539 61.8700384,63.6107051 65.2468053,63.4169769 L67.1653095,63.2632853 L65.8223565,61.8032156 C65.5345809,61.4958325 58.4744854,54.0033693 43.8362983,51.0640183 C41.2725456,50.524657 38.607795,50.7381307 36.1622816,51.6787846 C33.1206121,53.1129688 30.2609588,54.9059364 27.644123,57.019566 C23.0205278,60.4584145 18.2818224,64.0125316 15.2697708,68.9306614 C13.3512666,72.0813382 12.2385342,75.6162438 10.5694355,78.9014006 C8.32478562,83.2816101 5.12088359,87.1238985 3.0680841,91.6193771 C-0.596258925,99.6689718 -0.135817917,108.909676 0.40136326,117.746941 C0.385378283,119.629912 0.76446896,121.495255 1.5140957,123.222202 C3.2983046,126.584205 7.42308864,127.71768 11.1066167,128.889578 C27.260422,134.115091 41.4381681,146.045398 58.3785602,147.082816 C55.4710978,145.984661 52.8481266,144.244552 50.7045434,141.991783 C60.5144942,145.116846 70.4331609,147.825659 80.4605435,150.118224 C77.2884621,147.55546 74.5540255,144.492829 72.3644558,141.050422 C85.8899103,146.813855 100.412987,151.789619 114.993619,149.964532 C113.109501,149.515254 111.464713,148.369179 110.389209,146.756221 C110.753725,147.294142 118.542852,145.603534 119.521289,145.469055 C120.821859,145.283523 122.14833,145.456202 123.358297,145.968552 C132.112016,144.483252 140.684269,142.074824 148.931958,138.783472 Z" id="HJbZEHSaSWX"/>
                <g id="SyfW4SS6Sb7_rJKRud6S-m" data-animator-group="true" data-animator-type="0"><g id="SyfW4SS6Sb7_SyXPu6BWQ" data-animator-group="true" data-animator-type="1"><g id="SyfW4SS6Sb7">
                    <path d="M121.712224,47.3946325 C122.19185,65.8952531 109.184392,85.5869831 105.309014,91.0238219 C108.049401,89.8828561 110.500783,88.1435253 112.48422,85.9327896 L114.402723,83.8771645 L114.134133,86.6820359 C112.925475,99.1502629 105.309014,110.139209 96.714115,118.784359 C92.19541,123.359485 87.226856,127.465953 81.884077,131.04126 C78.3924,133.346633 70.219571,138.380031 65.826197,137.208134 C68.33025,137.872289 70.909815,138.208093 73.500214,138.207129 C64.168137,142.016274 54.116674,143.734259 44.051174,143.240527 C42.784962,143.240527 41.326898,142.952356 40.751347,141.81888 L41.825709,140.224331 C40.692015,140.606596 39.47111,140.646682 38.314847,140.339599 C37.754298,140.152535 37.298938,139.736742 37.061346,139.195017 C36.823753,138.653291 36.826105,138.036198 37.067819,137.496305 C37.585815,136.670213 38.986323,135.748064 38.142181,135.152509 C31.148911,136.593106 23.9359804,136.593106 16.9427099,135.152509 C15.0242061,134.76828 12.8179259,133.71165 13.0097761,131.828929 C13.2544986,130.883496 13.7676145,130.029351 14.4870243,129.369864 C16.1127897,127.399566 16.9835107,124.91323 16.9427099,122.357688 C11.379048,121.666075 5.802595,121.217809 0.2133533,121.012886 C0.6444911,121.501493 1.2517629,121.798634 1.901637,121.838979 L1.441196,120.39812 C2.3487042,118.587872 3.7882135,117.09945 5.56598,116.133179 C15.3311666,109.236271 19.8780215,100.072412 25.7102742,89.986404 C30.89464,80.6960573 36.748822,71.796759 43.226217,63.3593426 C45.359019,60.6384315 47.679704,58.0706087 50.171203,55.6747649 C47.216706,55.6747649 42.957627,56.0205709 41.173418,57.6919665 L38.199737,60.4968373 L39.61943,56.6545485 C39.830465,56.0782052 44.876131,42.5533486 50.689199,35.8869775 C53.90909,32.432806 56.309251,28.2956906 57.710924,23.7837677 C59.609023,17.2812107 59.535572,10.3606146 57.499888,3.89992314 L57.212113,2.99698528 L58.11381,2.70881362 C82.613109,-5.28314712 93.970653,11.8918839 96.387969,16.1568245 C98.670989,14.0243542 99.1698,6.68558254 98.920394,2.11325884 L98.920394,0.345805993 L100.455198,1.22953242 C107.515293,5.45605012 121.136673,26.1659869 121.712224,47.3946325 Z" id="BJQWEHr6SZ7"/>
                    <path d="M30.947791,85.3756571 C29.547283,83.9540108 29.604838,83.0318613 29.988538,82.3018264 L31.101271,80.130933 C31.868672,78.7284981 32.636074,77.3260624 33.461031,75.9620495 C35.13013,73.2724477 36.895154,70.6596913 38.794473,68.1429921 C40.676272,65.6146912 42.693665,63.1904855 44.837761,60.8810663 C45.931308,59.7283796 47.044041,58.5949044 48.233513,57.5190635 C49.439157,56.3462625 50.809355,55.3560336 52.300742,54.5797126 C52.529635,54.4671432 52.793869,54.4504734 53.035062,54.5333842 C53.276254,54.6162951 53.47455,54.7919645 53.58614,55.0215759 C53.75356,55.4008577 53.66958,55.844279 53.375104,56.1358396 L53.259994,56.2318968 C52.274835,57.2843631 51.376586,58.4151448 50.574089,59.613111 C49.710762,60.8426433 48.86662,62.1105987 48.041663,63.4553998 C46.39175,66.016925 44.780206,68.5784521 43.207033,71.1399774 C41.633859,73.7335223 40.079871,76.3462788 38.621807,78.9782469 C37.873591,80.2846249 37.18293,81.6102143 36.492268,82.9358044 L35.552201,84.8569482 C35.28361,85.5485604 34.746429,86.0480579 32.732,86.0480579 C32.071812,86.0693594 31.430145,85.8275396 30.947791,85.3756571 Z" id="BJ4-VHB6B-X"/>
                </g></g></g>
            </g></g></g>
        </g></g>
    </g>
<script>(function(){var a=document.querySelector('#BkNHBpSbm'),b=a.querySelectorAll('style'),c=function(d){b.forEach(function(f){var g=f.textContent;g&amp;&amp;(f.textContent=g.replace(/transform-box:[^;\r\n]*/gi,'transform-box: '+d))})};c('initial'),window.requestAnimationFrame(function(){return c('fill-box')})})();</script></svg>