<svg viewBox="0 0 598 600" version="1.1" xmlns="http://www.w3.org/2000/svg" xmlns:xlink="http://www.w3.org/1999/xlink" id="SJdKnuHb7"><style>@-webkit-keyframes Hkux_K2OSWm_ryc2dtBZX_Animation{0%{-webkit-transform: translate(0px, 0px);transform: translate(0px, 0px);}25%{-webkit-transform: translate(0px, 0px);transform: translate(0px, 0px);}26%{-webkit-transform: translate(0px, -5px);transform: translate(0px, -5px);}27%{-webkit-transform: translate(0px, 0px);transform: translate(0px, 0px);}28.00%{-webkit-transform: translate(0px, -5px);transform: translate(0px, -5px);}29.33%{-webkit-transform: translate(0px, 0px);transform: translate(0px, 0px);}100%{-webkit-transform: translate(0px, 0px);transform: translate(0px, 0px);}}@keyframes Hkux_K2OSWm_ryc2dtBZX_Animation{0%{-webkit-transform: translate(0px, 0px);transform: translate(0px, 0px);}25%{-webkit-transform: translate(0px, 0px);transform: translate(0px, 0px);}26%{-webkit-transform: translate(0px, -5px);transform: translate(0px, -5px);}27%{-webkit-transform: translate(0px, 0px);transform: translate(0px, 0px);}28.00%{-webkit-transform: translate(0px, -5px);transform: translate(0px, -5px);}29.33%{-webkit-transform: translate(0px, 0px);transform: translate(0px, 0px);}100%{-webkit-transform: translate(0px, 0px);transform: translate(0px, 0px);}}@-webkit-keyframes HyVedt2OrWm_BJsMZKSZQ_Animation{0%{-webkit-transform: translate(-20px, 50px);transform: translate(-20px, 50px);}64%{-webkit-transform: translate(-20px, 50px);transform: translate(-20px, 50px);}66.33%{-webkit-transform: translate(-20px, -20px);transform: translate(-20px, -20px);}68.33%{-webkit-transform: translate(-20px, -30px);transform: translate(-20px, -30px);}70.33%{-webkit-transform: translate(-20px, -20px);transform: translate(-20px, -20px);}72.33%{-webkit-transform: translate(-20px, -30px);transform: translate(-20px, -30px);}74.33%{-webkit-transform: translate(-20px, -20px);transform: translate(-20px, -20px);}76.33%{-webkit-transform: translate(-20px, -30px);transform: translate(-20px, -30px);}78.67%{-webkit-transform: translate(-20px, -20px);transform: translate(-20px, -20px);}80.67%{-webkit-transform: translate(-20px, -30px);transform: translate(-20px, -30px);}82.67%{-webkit-transform: translate(-20px, -20px);transform: translate(-20px, -20px);}84.67%{-webkit-transform: translate(-20px, -30px);transform: translate(-20px, -30px);}86.67%{-webkit-transform: translate(-20px, -20px);transform: translate(-20px, -20px);}94.67%{-webkit-transform: translate(-25px, 50px);transform: translate(-25px, 50px);}100%{-webkit-transform: translate(-25px, 50px);transform: translate(-25px, 50px);}}@keyframes HyVedt2OrWm_BJsMZKSZQ_Animation{0%{-webkit-transform: translate(-20px, 50px);transform: translate(-20px, 50px);}64%{-webkit-transform: translate(-20px, 50px);transform: translate(-20px, 50px);}66.33%{-webkit-transform: translate(-20px, -20px);transform: translate(-20px, -20px);}68.33%{-webkit-transform: translate(-20px, -30px);transform: translate(-20px, -30px);}70.33%{-webkit-transform: translate(-20px, -20px);transform: translate(-20px, -20px);}72.33%{-webkit-transform: translate(-20px, -30px);transform: translate(-20px, -30px);}74.33%{-webkit-transform: translate(-20px, -20px);transform: translate(-20px, -20px);}76.33%{-webkit-transform: translate(-20px, -30px);transform: translate(-20px, -30px);}78.67%{-webkit-transform: translate(-20px, -20px);transform: translate(-20px, -20px);}80.67%{-webkit-transform: translate(-20px, -30px);transform: translate(-20px, -30px);}82.67%{-webkit-transform: translate(-20px, -20px);transform: translate(-20px, -20px);}84.67%{-webkit-transform: translate(-20px, -30px);transform: translate(-20px, -30px);}86.67%{-webkit-transform: translate(-20px, -20px);transform: translate(-20px, -20px);}94.67%{-webkit-transform: translate(-25px, 50px);transform: translate(-25px, 50px);}100%{-webkit-transform: translate(-25px, 50px);transform: translate(-25px, 50px);}}@-webkit-keyframes HyVedt2OrWm_SJPJWtSWm_Animation{0%{-webkit-transform: rotate(50deg);transform: rotate(50deg);}64%{-webkit-transform: rotate(50deg);transform: rotate(50deg);}66.33%{-webkit-transform: rotate(-10deg);transform: rotate(-10deg);}68.33%{-webkit-transform: rotate(-20deg);transform: rotate(-20deg);}70.33%{-webkit-transform: rotate(-10deg);transform: rotate(-10deg);}72.33%{-webkit-transform: rotate(-20deg);transform: rotate(-20deg);}74.33%{-webkit-transform: rotate(-10deg);transform: rotate(-10deg);}76.33%{-webkit-transform: rotate(-20deg);transform: rotate(-20deg);}78.67%{-webkit-transform: rotate(-10deg);transform: rotate(-10deg);}80.67%{-webkit-transform: rotate(-20deg);transform: rotate(-20deg);}82.67%{-webkit-transform: rotate(-10deg);transform: rotate(-10deg);}84.67%{-webkit-transform: rotate(-20deg);transform: rotate(-20deg);}86.67%{-webkit-transform: rotate(-10deg);transform: rotate(-10deg);}94.67%{-webkit-transform: rotate(50deg);transform: rotate(50deg);}100%{-webkit-transform: rotate(50deg);transform: rotate(50deg);}}@keyframes HyVedt2OrWm_SJPJWtSWm_Animation{0%{-webkit-transform: rotate(50deg);transform: rotate(50deg);}64%{-webkit-transform: rotate(50deg);transform: rotate(50deg);}66.33%{-webkit-transform: rotate(-10deg);transform: rotate(-10deg);}68.33%{-webkit-transform: rotate(-20deg);transform: rotate(-20deg);}70.33%{-webkit-transform: rotate(-10deg);transform: rotate(-10deg);}72.33%{-webkit-transform: rotate(-20deg);transform: rotate(-20deg);}74.33%{-webkit-transform: rotate(-10deg);transform: rotate(-10deg);}76.33%{-webkit-transform: rotate(-20deg);transform: rotate(-20deg);}78.67%{-webkit-transform: rotate(-10deg);transform: rotate(-10deg);}80.67%{-webkit-transform: rotate(-20deg);transform: rotate(-20deg);}82.67%{-webkit-transform: rotate(-10deg);transform: rotate(-10deg);}84.67%{-webkit-transform: rotate(-20deg);transform: rotate(-20deg);}86.67%{-webkit-transform: rotate(-10deg);transform: rotate(-10deg);}94.67%{-webkit-transform: rotate(50deg);transform: rotate(50deg);}100%{-webkit-transform: rotate(50deg);transform: rotate(50deg);}}@-webkit-keyframes BkWuY2_B-m_H1jA2_rWX_Animation{0%{-webkit-transform: translate(0px, 600px);transform: translate(0px, 600px);}6.33%{-webkit-transform: translate(0px, 490px);transform: translate(0px, 490px);}11%{-webkit-transform: translate(0px, 490px);transform: translate(0px, 490px);}15%{-webkit-transform: translate(0px, 600px);transform: translate(0px, 600px);}20%{-webkit-transform: translate(0px, 600px);transform: translate(0px, 600px);}25%{-webkit-transform: translate(0px, 490px);transform: translate(0px, 490px);}30%{-webkit-transform: translate(0px, 490px);transform: translate(0px, 490px);}35%{-webkit-transform: translate(0px, 490px);transform: translate(0px, 490px);}37.67%{-webkit-transform: translate(0px, 600px);transform: translate(0px, 600px);}42%{-webkit-transform: translate(0px, 600px);transform: translate(0px, 600px);}47%{-webkit-transform: translate(0px, 440px);transform: translate(0px, 440px);}50%{-webkit-transform: translate(0px, 600px);transform: translate(0px, 600px);}55.00%{-webkit-transform: translate(0px, 600px);transform: translate(0px, 600px);}64%{-webkit-transform: translate(0px, 320px);transform: translate(0px, 320px);}94.67%{-webkit-transform: translate(0px, 320px);transform: translate(0px, 320px);}99.67%{-webkit-transform: translate(0px, 600px);transform: translate(0px, 600px);}100%{-webkit-transform: translate(0px, 600px);transform: translate(0px, 600px);}}@keyframes BkWuY2_B-m_H1jA2_rWX_Animation{0%{-webkit-transform: translate(0px, 600px);transform: translate(0px, 600px);}6.33%{-webkit-transform: translate(0px, 490px);transform: translate(0px, 490px);}11%{-webkit-transform: translate(0px, 490px);transform: translate(0px, 490px);}15%{-webkit-transform: translate(0px, 600px);transform: translate(0px, 600px);}20%{-webkit-transform: translate(0px, 600px);transform: translate(0px, 600px);}25%{-webkit-transform: translate(0px, 490px);transform: translate(0px, 490px);}30%{-webkit-transform: translate(0px, 490px);transform: translate(0px, 490px);}35%{-webkit-transform: translate(0px, 490px);transform: translate(0px, 490px);}37.67%{-webkit-transform: translate(0px, 600px);transform: translate(0px, 600px);}42%{-webkit-transform: translate(0px, 600px);transform: translate(0px, 600px);}47%{-webkit-transform: translate(0px, 440px);transform: translate(0px, 440px);}50%{-webkit-transform: translate(0px, 600px);transform: translate(0px, 600px);}55.00%{-webkit-transform: translate(0px, 600px);transform: translate(0px, 600px);}64%{-webkit-transform: translate(0px, 320px);transform: translate(0px, 320px);}94.67%{-webkit-transform: translate(0px, 320px);transform: translate(0px, 320px);}99.67%{-webkit-transform: translate(0px, 600px);transform: translate(0px, 600px);}100%{-webkit-transform: translate(0px, 600px);transform: translate(0px, 600px);}}#SJdKnuHb7 *{-webkit-animation-duration: 10s;animation-duration: 10s;-webkit-animation-iteration-count: infinite;animation-iteration-count: infinite;-webkit-animation-timing-function: cubic-bezier(0, 0, 1, 1);animation-timing-function: cubic-bezier(0, 0, 1, 1);}#HJedt3OBb7{stroke: none;stroke-width: 1;fill: none;}#H1GOF3dH-X{-webkit-transform:  translate(70.000000px, 0.000000px);transform:  translate(70.000000px, 0.000000px);}#rJXOF3dSZ7{fill: #D84C4E;}#S1E_FnOHWQ{-webkit-transform:  translate(78.338592px, 142.828464px);transform:  translate(78.338592px, 142.828464px);}#S1SdYhOSbQ{fill: #FF717F;}#BJ8_FhdBWX{fill: #5E191E;}#S1DuFhOr-Q{-webkit-transform:  translate(131.887921px, 14.409527px) scale(-1, 1) translate(-131.887921px, -14.409527px) translate(99.887921px, 9.409527px);transform:  translate(131.887921px, 14.409527px) scale(-1, 1) translate(-131.887921px, -14.409527px) translate(99.887921px, 9.409527px);fill: #FFFFFF;}#SytdKndBbX{-webkit-transform:  translate(10.346164px, 4.281912px) rotate(4.900000deg) translate(-10.346164px, -4.281912px);transform:  translate(10.346164px, 4.281912px) rotate(4.900000deg) translate(-10.346164px, -4.281912px);}#S1cdthuBbX{-webkit-transform:  translate(32.503410px, 5.576109px) rotate(3.000000deg) translate(-32.503410px, -5.576109px);transform:  translate(32.503410px, 5.576109px) rotate(3.000000deg) translate(-32.503410px, -5.576109px);}#HJouKnOBZX{-webkit-transform:  translate(32.467153px, 9.409527px);transform:  translate(32.467153px, 9.409527px);fill: #FFFFFF;}#rya_FhdrZX{-webkit-transform:  translate(10.346164px, 4.281912px) rotate(4.900000deg) translate(-10.346164px, -4.281912px);transform:  translate(10.346164px, 4.281912px) rotate(4.900000deg) translate(-10.346164px, -4.281912px);}#HyAOF2_rZm{-webkit-transform:  translate(32.503410px, 5.576109px) rotate(3.000000deg) translate(-32.503410px, -5.576109px);transform:  translate(32.503410px, 5.576109px) rotate(3.000000deg) translate(-32.503410px, -5.576109px);}#HyJedKn_HWX{fill: #B4383C;}#HklguK2ur-X{fill: #B4383C;}#H1Zx_Y2dSZX{-webkit-transform:  translate(0.000000px, 202.000000px);transform:  translate(0.000000px, 202.000000px);}#ryGeOK2dH-Q{fill: #D84C4E;}#Hk7ldtndBWX{fill: #B4383C;}#HyVedt2OrWm{-webkit-transform:  translate(340.000000px, 136.000000px);transform:  translate(340.000000px, 136.000000px);}#S1rxdY3uSZX{fill: #D84C4E;}#BJ8lOYn_r-Q{fill: #D84C4E;}#HyDx_K2OBbQ{fill: #B4383C;}#Hkux_K2OSWm{-webkit-transform:  translate(143.000000px, 67.000000px);transform:  translate(143.000000px, 67.000000px);fill: #B4383C;}#SJsgut2drWQ{-webkit-transform:  translate(165.000000px, 93.000000px);transform:  translate(165.000000px, 93.000000px);}#SJ2xdKnuB-m{stroke: #882428;fill: #FFFFFF;}#HkTeuFhOr-7{fill: #882428;}#BJAeOKhOrZm{fill: #B4383C;}#rk1-_KndrWQ{stroke: #882428;fill: #FFFFFF;}#SkxbOthdBW7{fill: #882428;}#SJZWOFhdrWm{fill: #B4383C;}#BkWuY2_B-m_H1jA2_rWX{-webkit-animation-name: BkWuY2_B-m_H1jA2_rWX_Animation;animation-name: BkWuY2_B-m_H1jA2_rWX_Animation;-webkit-animation-timing-function: cubic-bezier(0, 0, 0.58, 1);animation-timing-function: cubic-bezier(0, 0, 0.58, 1);-webkit-transform-origin: 50% 50%;transform-origin: 50% 50%;transform-box: fill-box;-webkit-transform: translate(0px, 600px);transform: translate(0px, 600px);}#HyVedt2OrWm_SJPJWtSWm{-webkit-animation-name: HyVedt2OrWm_SJPJWtSWm_Animation;animation-name: HyVedt2OrWm_SJPJWtSWm_Animation;-webkit-animation-timing-function: cubic-bezier(0.42, 0, 0.58, 1);animation-timing-function: cubic-bezier(0.42, 0, 0.58, 1);-webkit-transform-origin: 50% 50%;transform-origin: 50% 50%;transform-box: fill-box;-webkit-transform: rotate(50deg);transform: rotate(50deg);}#HyVedt2OrWm_BJsMZKSZQ{-webkit-animation-name: HyVedt2OrWm_BJsMZKSZQ_Animation;animation-name: HyVedt2OrWm_BJsMZKSZQ_Animation;-webkit-animation-timing-function: cubic-bezier(0.42, 0, 0.58, 1);animation-timing-function: cubic-bezier(0.42, 0, 0.58, 1);-webkit-transform-origin: 50% 50%;transform-origin: 50% 50%;transform-box: fill-box;-webkit-transform: translate(-20px, 50px);transform: translate(-20px, 50px);}#Hkux_K2OSWm_ryc2dtBZX{-webkit-animation-name: Hkux_K2OSWm_ryc2dtBZX_Animation;animation-name: Hkux_K2OSWm_ryc2dtBZX_Animation;-webkit-animation-timing-function: cubic-bezier(0.42, 0, 0.58, 1);animation-timing-function: cubic-bezier(0.42, 0, 0.58, 1);-webkit-transform-origin: 50% 50%;transform-origin: 50% 50%;transform-box: fill-box;-webkit-transform: translate(0px, 0px);transform: translate(0px, 0px);}</style>
    <!-- Generator: Sketch 50.2 (55047) - http://www.bohemiancoding.com/sketch -->
    <title>The IT Monster Illustration02-happy01</title>
    <desc>Created with Sketch.</desc>
    <defs/>
    <g id="HJedt3OBb7" fill-rule="evenodd">
        <g id="BkWuY2_B-m_H1jA2_rWX" data-animator-group="true" data-animator-type="0"><g id="BkWuY2_B-m" fill-rule="nonzero">
            <g id="H1GOF3dH-X">
                <path d="M331.025722,447.774122 C309.405717,418.894286 290.259515,322.868189 290.259515,322.868189 C293.119849,330.583194 306.571151,341.178468 306.571151,341.178468 C296.26364,316.361868 303.710817,232.525478 303.710817,232.525478 L328.088081,202.591258 C318.502096,185.232497 296.418253,172.708472 296.418253,172.708472 C302.60276,169.802486 317.677495,178.649026 317.677495,178.649026 C314.19871,171.268337 311.699138,171.088321 302.448147,158.075679 C293.197156,145.063037 297.861304,109.548296 297.861304,109.548296 C300.670101,108.339612 305.437325,116.131767 305.437325,116.131767 C308.168816,108.005295 305.746551,96.9214044 305.746551,96.9214044 C310.900306,96.1241872 321.439736,112.119965 321.439736,112.119965 C326.129654,100.624607 319.275159,86.0689638 319.275159,86.0689638 C328.062312,84.7831296 351.176906,101.113224 351.176906,101.113224 C351.176906,101.113224 345.765463,77.5567414 327.340786,72.8248716 C316.733118,69.899356 305.384461,71.5013488 296.005952,77.2481412 C296.005952,43.4821353 247.045274,28.9264922 247.045274,28.9264922 C249.467539,25.7119068 263.949593,28.3864419 263.949593,28.3864419 C251.219816,12.6221147 226.739477,9.74184609 226.739477,9.74184609 C228.517523,7.32447781 234.650492,6.03864361 234.650492,6.03864361 C234.650492,6.03864361 233.671279,4.41849253 222.410323,1.38392384 C211.149367,-1.65064486 190.353963,3.62127533 190.353963,3.62127533 L175.923447,1.04960695 L161.467163,3.62127533 C161.467163,3.62127533 140.697528,-1.67636154 129.436572,1.38392384 C118.175616,4.44420921 117.196402,6.03864361 117.196402,6.03864361 C117.196402,6.03864361 123.303603,7.32447781 125.081648,9.74184609 C125.081648,9.74184609 100.601309,12.6221147 87.8715328,28.3864419 C87.8715328,28.3864419 102.379355,25.8147735 104.775851,28.9264922 C104.775851,28.9264922 55.8151731,43.4821353 55.8151731,77.2481412 C46.4456995,71.5026534 35.1054022,69.9005236 24.5061078,72.8248716 C6.05566282,77.5567414 0.669988227,101.113224 0.669988227,101.113224 C0.669988227,101.113224 23.8618884,84.7831296 32.5459666,86.0689638 C32.5459666,86.0689638 25.7172404,100.624607 30.3813892,112.119965 C30.3813892,112.119965 40.9208194,96.1241872 46.074575,96.9214044 C46.074575,96.9214044 43.6523099,108.005295 46.4095691,116.131767 C46.4095691,116.131767 51.1510243,108.416762 53.9598211,109.548296 C53.9598211,109.548296 58.6497386,145.140187 49.3729786,158.075679 C40.0962185,171.011171 37.6224158,171.191187 34.1693996,178.649026 C34.1693996,178.649026 49.2183659,169.802486 55.4286414,172.708472 C55.4286414,172.708472 33.4478738,185.232497 23.8618884,202.591258 L48.2133836,232.525478 C48.2133836,232.525478 55.5574853,316.361868 45.378818,341.178468 C45.378818,341.178468 58.8301201,330.583194 61.6646857,322.868189 C61.6646857,322.868189 42.5184836,418.894286 20.8984789,447.774122 C20.8984789,447.774122 32.726348,446.153971 35.9989828,441.267801 C35.9989828,441.267801 33.422105,460.889631 27.9848929,471.253455 C24.7613593,476.917243 22.8341328,483.222956 22.3415305,489.718034 C21.9348276,497.301012 23.3668353,504.870016 26.5160725,511.782948 C28.551806,516.231935 30.5617707,520.680921 32.1336661,525.284207 C36.1793643,537.113882 42.2350271,557.095745 39.2458488,563.859233 C39.2458488,563.859233 52.2848505,555.192711 56.3047798,547.966322 C56.3047798,547.966322 44.219223,578.826343 49.7079727,607.114695 C55.1967224,635.403048 69.3437815,657.416529 74.9871439,659.010963 C80.6305062,660.605398 89.1599717,647.927073 97.3802119,654.844861 C105.600452,661.762649 127.323532,666.417368 139.409089,660.939715 C151.494646,655.462061 156.493789,650.833058 158.246065,655.976395 C159.998342,661.119731 167.033219,661.711215 175.923447,657.725129 C184.813676,661.711215 191.822783,661.094015 193.600829,655.976395 C195.378874,650.858775 200.352249,655.487778 212.437806,660.939715 C224.523362,666.391652 246.272211,661.762649 254.466682,654.844861 C262.661154,647.927073 271.216388,660.631114 276.85975,659.010963 C282.503113,657.390812 296.675941,635.403048 302.138922,607.114695 C307.601903,578.826343 295.542114,547.966322 295.542114,547.966322 C299.562044,555.192711 312.626814,563.859233 312.626814,563.859233 C309.611867,557.121462 315.66753,537.139599 319.713228,525.284207 C321.310892,520.680921 323.295088,516.231935 325.330822,511.782948 C328.48006,504.870016 329.912067,497.301012 329.505364,489.718034 C329.00982,483.226988 327.092133,476.923708 323.88777,471.253455 C318.321714,460.966781 315.87368,441.267801 315.87368,441.267801 C319.197853,446.153971 331.025722,447.774122 331.025722,447.774122 Z" id="rJXOF3dSZ7"/>
                <g id="S1E_FnOHWQ">
                    <path d="M98.7444502,6.27209148 C131.740137,6.26944346 164.703111,4.19946509 197.43887,0.0743706711 C197.43887,16.8416485 153.245416,30.4457743 98.7444502,30.4457743 C44.2434848,30.4457743 0.0500306098,16.8416485 0.0500306098,0.0743706711 C32.7856363,4.20108337 65.7487126,6.27106814 98.7444502,6.27209148 Z" id="S1SdYhOSbQ"/>
                    <path d="M98.7444502,12.7012624 C70.337801,12.6961643 41.9517035,11.1767152 13.7074829,8.1494094 C19.0872486,11.2661599 24.8349538,13.7022685 30.8179515,15.4015142 C48.8560961,20.956318 72.9756722,24.0166033 98.7186814,24.0166033 C124.461691,24.0166033 148.50396,20.956318 166.542105,15.4015142 C172.532923,13.7012518 178.289031,11.2652502 183.678342,8.1494094 C155.468308,11.1730594 127.116716,12.6925032 98.7444502,12.7012624 Z" id="BJ8_FhdBWX"/>
                    <g id="S1DuFhOr-Q">
                        <path d="M44.5542171,2.95742258 L63.7519567,2.95742258 L63.7519567,6.63490837 C63.7519567,8.0552016 62.5982491,9.20657675 61.1750789,9.20657675 L47.2084012,9.20657675 C45.785231,9.20657675 44.6315234,8.0552016 44.6315234,6.63490837 L44.6315234,2.95742258 L44.5542171,2.95742258 Z" id="rk_dK3dHZm"/>
                        <path d="M0.747294612,1.15733504 L19.9450342,1.15733504 L19.9450342,4.83482084 C19.9450342,6.25511407 18.7913267,7.40648923 17.3681564,7.40648923 L3.40147874,7.40648923 C1.97830843,7.40648923 0.824600946,6.25511407 0.824600946,4.83482084 L0.824600946,1.15733504 L0.747294612,1.15733504 Z" id="SytdKndBbX"/>
                        <path d="M22.9045398,2.45153198 L42.1022793,2.45153198 L42.1022793,6.12901777 C42.1022793,7.549311 40.9485719,8.70068615 39.5254015,8.70068615 L25.5587239,8.70068615 C24.1355536,8.70068615 22.9818461,7.549311 22.9818461,6.12901777 L22.9818461,2.45153198 L22.9045398,2.45153198 Z" id="S1cdthuBbX"/>
                    </g>
                    <g id="HJouKnOBZX">
                        <path d="M44.5542171,2.95742258 L63.7519567,2.95742258 L63.7519567,6.63490837 C63.7519567,8.0552016 62.5982491,9.20657675 61.1750789,9.20657675 L47.2084012,9.20657675 C45.785231,9.20657675 44.6315234,8.0552016 44.6315234,6.63490837 L44.6315234,2.95742258 L44.5542171,2.95742258 Z" id="SJ2dtnOr-Q"/>
                        <path d="M0.747294612,1.15733504 L19.9450342,1.15733504 L19.9450342,4.83482084 C19.9450342,6.25511407 18.7913267,7.40648923 17.3681564,7.40648923 L3.40147874,7.40648923 C1.97830843,7.40648923 0.824600946,6.25511407 0.824600946,4.83482084 L0.824600946,1.15733504 L0.747294612,1.15733504 Z" id="rya_FhdrZX"/>
                        <path d="M22.9045398,2.45153198 L42.1022793,2.45153198 L42.1022793,6.12901777 C42.1022793,7.549311 40.9485719,8.70068615 39.5254015,8.70068615 L25.5587239,8.70068615 C24.1355536,8.70068615 22.9818461,7.549311 22.9818461,6.12901777 L22.9818461,2.45153198 L22.9045398,2.45153198 Z" id="HyAOF2_rZm"/>
                    </g>
                </g>
                <path d="M274.514792,581.860912 C273.904376,581.349808 273.114748,581.103077 272.321258,581.175506 C271.527768,581.247934 270.796094,581.633527 270.288712,582.246662 C266.500702,586.772798 262.558079,591.273218 258.563918,595.645054 C256.579722,597.830972 254.543989,599.991174 252.430949,602.074225 C250.93636,603.51436 249.416002,604.980211 247.844106,606.266045 C247.967517,604.626328 247.898331,602.977832 247.637956,601.354158 C247.458386,599.985475 247.030513,598.660878 246.375286,597.445222 C245.516333,595.814903 243.924981,594.695556 242.097669,594.43637 C241.639654,594.332639 241.16417,594.332639 240.706155,594.43637 C240.276265,594.510681 239.85375,594.622551 239.443485,594.770687 C238.809859,595.048021 238.190624,595.357012 237.588133,595.696488 C236.514561,596.31987 235.473844,596.997973 234.470111,597.728106 C232.537452,599.142523 230.6821,600.582658 228.852517,602.022792 C225.141813,604.851627 221.585722,607.783329 217.797711,610.303564 C214.762387,612.425826 211.415621,614.065462 207.876732,615.164017 C208.957782,613.228644 209.896519,611.217448 210.685529,609.146313 C211.281707,607.675957 211.697038,606.138883 211.92243,604.568744 C212.100227,603.66875 212.100227,602.742769 211.92243,601.842775 C211.69148,600.682701 210.980203,599.673982 209.964003,599.065373 L209.010558,598.499606 L208.082882,599.32254 C204.990629,602.228525 201.692225,605.031644 198.342284,607.603312 C196.641545,608.86343 194.889268,610.174981 193.188528,611.152215 C191.910209,611.935853 190.543577,612.565997 189.117061,613.029533 C188.678992,612.258032 188.240923,611.537965 187.725547,610.792181 C186.959762,609.657479 186.097627,608.590594 185.14867,607.603312 C183.178427,605.449504 180.552091,604.003421 177.675724,603.488643 L177.314961,603.488643 C174.438594,604.003421 171.812258,605.449504 169.842016,607.603312 C168.90035,608.596974 168.038717,609.663239 167.265138,610.792181 C166.775531,611.537965 166.311693,612.258032 165.873624,613.029533 C164.455477,612.565465 163.097439,611.935298 161.827926,611.152215 C160.04988,610.072114 158.323372,608.86343 156.67417,607.603312 C153.278788,605.011762 150.019037,602.247862 146.907803,599.32254 L145.980127,598.499606 L145.052451,599.065373 C144.028684,599.671045 143.308274,600.679448 143.068255,601.842775 C142.890458,602.742769 142.890458,603.66875 143.068255,604.568744 C143.293647,606.138883 143.708978,607.675957 144.305157,609.146313 C144.976488,611.242341 145.776842,613.295009 146.701653,615.292601 C143.164903,614.188689 139.818935,612.549443 136.780673,610.432148 C132.992663,607.860479 129.436572,604.980211 125.725868,602.151375 C123.896284,600.711241 122.040932,599.271107 120.108274,597.856689 C119.129061,597.162339 118.124078,596.467988 117.016021,595.825071 C116.474876,595.490754 115.753351,595.207871 115.1349,594.89927 C114.726669,594.744734 114.303533,594.632699 113.87223,594.564954 C113.414215,594.461223 112.938731,594.461223 112.480716,594.564954 C110.74593,594.791993 109.209292,595.795415 108.306174,597.290922 C107.66207,598.511279 107.234853,599.833842 107.043504,601.199858 C106.778669,602.82327 106.718073,604.47334 106.863122,606.111745 C105.265458,604.82591 103.7451,603.360059 102.250511,601.919925 C100.16324,599.836874 98.1275065,597.676672 96.1175418,595.490754 C92.1233812,591.118918 88.206527,586.618498 84.4185166,582.092362 C84.3641458,582.003585 84.2943345,581.925206 84.2123664,581.860912 C83.4436404,581.11671 82.3354768,580.838319 81.3053101,581.130607 C80.2751432,581.422897 79.4794799,582.24146 79.2180389,583.27795 C78.9565979,584.314443 79.2690984,585.411396 80.0378243,586.155598 C84.366979,590.347417 88.7476713,594.43637 93.2572074,598.422456 C95.5248599,600.428358 97.7925124,602.382825 100.16324,604.28586 C102.525748,606.227794 105.061705,607.949449 107.739261,609.429197 L109.568844,610.406431 L109.414231,608.40053 C109.716392,606.213063 110.16404,604.048081 110.754208,601.919925 C111.008065,601.013391 111.38983,600.147495 111.888034,599.348257 C112.377641,598.653906 112.712635,598.448173 113.047629,598.448173 C113.153493,598.397375 113.276759,598.397375 113.382623,598.448173 C113.511467,598.448173 113.588773,598.448173 113.794923,598.448173 C114.24134,598.616661 114.672409,598.823153 115.083362,599.065373 C116.045077,599.592504 116.974406,600.176455 117.86639,600.814108 C119.721742,602.099942 121.551326,603.385776 123.432446,604.903061 C127.155735,607.805088 131.054164,610.476082 135.105703,612.900949 C137.17871,614.149623 139.360793,615.208332 141.625204,616.064101 C143.947983,616.989642 146.417433,617.494726 148.917768,617.555669 L151.030808,617.555669 L149.92275,615.832651 C148.591841,613.291159 147.479781,610.641376 146.598578,607.911913 C146.140932,606.624929 145.846595,605.285815 145.722439,603.925827 C145.653628,603.465472 145.653628,602.99748 145.722439,602.537126 C148.479699,605.108794 151.262727,607.680462 154.251905,610.046397 C156.004182,611.409382 157.782227,612.618066 159.689117,613.929617 C161.735259,615.323607 164.053608,616.270105 166.492074,616.707018 L167.754745,616.861318 L168.347426,615.549768 C168.777987,614.431357 169.294917,613.348 169.893553,612.309465 C170.48796,611.252286 171.168853,610.245915 171.929287,609.300613 C173.281648,607.484352 175.17625,606.142805 177.34073,605.468828 C179.511702,606.129669 181.410092,607.473898 182.752173,609.300613 C183.521178,610.239581 184.202589,611.246721 184.787907,612.309465 C185.386543,613.348 185.903472,614.431357 186.334033,615.549768 L186.926715,616.861318 L188.189385,616.707018 C190.627851,616.270105 192.946201,615.323607 194.992343,613.929617 C196.87067,612.729702 198.685502,611.43356 200.429555,610.046397 C203.418733,607.654746 206.22753,605.160227 208.95902,602.537126 C209.027832,602.99748 209.027832,603.465472 208.95902,603.925827 C208.831506,605.28295 208.546129,606.620647 208.108651,607.911913 C207.218557,610.641988 206.097888,613.291742 204.75871,615.832651 L203.650652,617.864269 L205.763692,617.864269 C208.255709,617.803573 210.716745,617.298425 213.030487,616.372702 C215.294898,615.516933 217.476981,614.458223 219.549988,613.209549 C223.609854,610.784813 227.516865,608.113835 231.249013,605.211661 C233.104365,603.82296 234.959717,602.408542 236.815069,601.122708 C237.702202,600.491073 238.622608,599.907325 239.572329,599.373973 C239.983282,599.131753 240.414351,598.925261 240.860768,598.756773 C241.092687,598.756773 241.144224,598.756773 241.273068,598.756773 C241.378932,598.705975 241.502198,598.705975 241.608062,598.756773 C241.968825,598.756773 242.303819,598.962507 242.793426,599.656857 C243.282647,600.457541 243.655708,601.32337 243.901483,602.228525 C244.488144,604.359052 244.944237,606.52326 245.267229,608.70913 L245.112616,610.715031 L246.942199,609.737797 C249.627988,608.258283 252.172522,606.536664 254.543989,604.59446 C256.897537,602.691426 259.190957,600.736958 261.424252,598.731056 C265.933789,594.74497 270.314481,590.656018 274.669404,586.464198 L274.875555,586.232748 C275.433565,585.616239 275.711318,584.796914 275.642995,583.968931 C275.574669,583.140952 275.166347,582.37801 274.514792,581.860912 Z" id="HyJedKn_HWX"/>
                <path d="M177.289192,659.010963 C176.577607,659.010963 176.000753,658.435275 176.000753,657.725129 L176.000753,604.620177 C176.000753,603.910031 176.577607,603.334343 177.289192,603.334343 C178.000778,603.334343 178.577631,603.910031 178.577631,604.620177 L178.577631,657.699412 C178.584556,658.04487 178.451873,658.378572 178.209489,658.625306 C177.967106,658.872037 177.63542,659.011033 177.289192,659.010963 Z" id="HklguK2ur-X"/>
            </g>
            <g id="H1Zx_Y2dSZX">
                <path d="M94.5247799,243.096995 C115.376803,211.81271 133.098435,124.544673 133.848694,120.727017 L131.261594,120.035226 C129.450625,124.929001 122.931134,131.180733 118.817645,134.793415 C126.811783,106.096937 120.551002,33.6127103 120.266421,30.3587347 L120.266421,29.8719195 L95.8959427,0.201811646 L94.9645868,1.86723221 C85.2629633,19.3413372 86.8152231,32.9721639 86.892836,33.5614666 L87.229159,36.123652 L89.0918707,34.2532566 C92.2287362,30.9675835 95.9577531,28.2911679 100.087044,26.3617254 C97.8362674,32.0241553 91.1356794,48.6271172 83.8918005,63.6159022 C80.06892,72.2347977 75.306245,80.4140378 69.6886237,88.007908 C63.3671446,95.7718829 56.3631894,102.965614 48.7589879,109.504644 L45.7579523,111.887477 L49.5868597,111.887477 C54.2133837,111.699071 58.746408,110.537424 62.8845517,108.47977 C59.5213222,116.550654 51.0356355,134.58844 38.0225245,146.374493 C18.5416645,164.002329 -2.87952026,194.415471 0.845903174,222.138318 L1.3374521,225.853487 L3.25190581,222.599511 C5.14449249,219.12614 7.7960628,216.114953 11.0132046,213.785593 C7.57236215,222.061452 -3.47455317,251.577829 2.81209887,275.457398 C10.0559778,302.84716 34.2971011,325.624989 45.0853064,328.878965 L47.3878251,329.570755 L46.7151792,327.29041 C44.9818224,321.448627 43.4036917,311.737944 45.7320813,308.278994 C50.2336346,313.19839 70.4130116,332.056075 100.061173,314.223264 L101.147755,313.557096 L100.50098,312.480978 C95.8460577,304.713459 93.6305999,295.749666 94.1367149,286.731014 C94.5933445,280.41917 96.4765965,274.289679 99.6472371,268.795715 C105.261243,258.393242 107.718988,239.279339 107.822472,238.485061 L108.520989,233.07885 L105.468211,237.613918 C103.89008,240.457944 98.4313003,242.225852 94.5247799,243.096995 Z" id="ryGeOK2dH-Q"/>
                <path d="M112.841445,190.828411 C118.662419,169.587894 123.552037,148.168023 127.665526,126.594421 C127.686231,126.359227 127.533556,126.14322 127.303332,126.081984 C127.061753,126.033049 126.823534,126.179098 126.760041,126.415068 C121.818681,147.783695 116.127062,168.998591 109.529958,189.854781 C106.235718,200.308497 102.562036,210.557239 98.5089133,220.601006 C94.7541263,230.659103 89.7297695,240.206425 83.5554775,249.015643 C83.0964358,249.635332 82.8929226,250.404899 82.9863156,251.167879 C83.2009844,252.794996 84.706511,253.941941 86.3495451,253.730065 C87.9276759,253.499468 89.3247097,253.192006 90.7993564,252.858922 C92.2740032,252.525838 93.696908,252.064644 95.1456838,251.552207 L96.6462016,250.962904 C95.7665877,254.831804 94.7317478,258.649461 93.515811,262.390252 C92.5852587,265.285811 91.4261108,268.104371 90.0490976,270.819842 C89.4281937,271.972825 88.4709668,273.56138 87.6689659,275.098692 C86.866965,276.636003 86.1167062,278.275802 85.4440603,279.9156 C84.0554757,283.294434 83.0994394,286.832133 82.5982507,290.446183 C82.1467045,294.04148 82.0686833,297.673162 82.3654117,301.284227 C82.9796771,308.579658 85.1300166,315.666794 88.6779348,322.089173 L88.9107737,322.473501 C90.7468021,325.303612 94.5517646,326.123811 97.4093957,324.305464 C100.267027,322.487117 101.0952,318.718795 99.2591722,315.888684 C96.0904033,311.069964 93.9672227,305.651716 93.0242621,299.977513 C92.5572027,297.124081 92.3838406,294.231061 92.5068422,291.342948 C92.6769667,288.476912 93.2159946,285.644132 94.1108439,282.913357 C94.5552337,281.487283 95.0733371,280.084771 95.6631037,278.711373 C96.2322656,277.302171 96.8790405,276.149188 97.6810414,274.25317 C99.0027707,271.044517 100.066784,267.737576 100.863174,264.363134 C102.416695,257.852516 103.51451,251.243446 104.14879,244.583063 C104.281311,243.458055 103.773226,242.353006 102.82937,241.713415 C101.441156,240.819505 99.5853195,241.19623 98.6641392,242.558936 C98.0698173,243.313032 97.3201868,243.933164 96.4651046,244.378088 C95.4110077,244.982615 94.3024,245.488692 93.1536171,245.889777 L92.4033582,246.094752 C96.5972942,238.423613 100.136686,230.418829 102.984596,222.16394 C106.675524,211.829792 109.961141,201.384615 112.841445,190.828411 Z" id="Hk7ldtndBWX"/>
            </g>
            <g id="HyVedt2OrWm_BJsMZKSZQ" data-animator-group="true" data-animator-type="0"><g id="HyVedt2OrWm_SJPJWtSWm" data-animator-group="true" data-animator-type="1"><g id="HyVedt2OrWm">
                <path d="M199.09039,185.65736 C188.06247,182.830351 178.137342,178.307138 171.03331,168.721009 C170.580675,167.924132 170.841937,166.911045 171.623175,166.433702 C178.320967,161.614552 184.032478,155.550804 188.447165,148.572148 C190.498871,145.488139 189.729481,147.338544 188.83186,145.79654 C187.934238,144.254535 186.267227,142.789631 185.369606,140.964925 C184.982988,140.308753 185.088486,139.47356 185.626069,138.934619 C190.498871,134.848307 196.37188,132.895101 201.834547,129.759691 C204.989045,127.960686 208.066604,126.13598 208.887286,122.76927 C208.887286,122.53797 208.887286,119.45396 208.887286,118.297457 L205.553264,118.657258 C188.216348,120.918865 168.981604,115.676049 160.672194,113.003241 C164.878751,111.183272 168.66074,108.504948 171.777053,105.139017 L174.341686,102.286308 L170.597322,103.005911 C160.734453,104.5624 150.752593,105.233267 140.770646,105.010517 C131.362958,104.305032 122.059048,102.581667 113.021321,99.8705012 C96.9410753,95.6813885 79.9375614,90.0273715 74.1671382,88.0741656 C78.2805267,86.1931846 82.7070979,85.0951154 87.2211179,84.8359558 L89.7857505,84.6303552 L87.9905077,82.6771493 C87.6058128,82.2659481 78.167965,72.2429179 58.5998185,68.310806 C55.1726257,67.5892763 51.6104203,67.8748504 48.3412883,69.1332085 C44.2752224,71.0517861 40.4524734,73.4503255 36.9543198,76.27783 C30.7735553,80.8781439 24.4389129,85.6326582 20.4124397,92.2118781 C17.8478072,96.4266908 16.3603203,101.155505 14.12909,105.550218 C11.1284699,111.409836 6.84553351,116.549851 4.10137667,122.56367 C-0.797071516,133.332002 -0.181559702,145.693739 0.536537415,157.515775 C0.515168896,160.034717 1.0219326,162.530076 2.0240243,164.840297 C4.40913258,169.337811 9.92309258,170.854115 14.8471871,172.42182 C36.4413932,179.412241 55.3940278,195.371989 78.0397333,196.759793 C74.1530737,195.290738 70.6467184,192.96291 67.7812031,189.949273 C80.8950234,194.12982 94.1541737,197.753531 107.558654,200.820406 C103.318255,197.392072 99.6628942,193.295043 96.7359047,188.689969 C114.816564,196.399992 134.230833,203.056312 153.72204,200.614805 C151.203374,200.013783 149.004642,198.480624 147.566922,196.322892 C148.054202,197.042494 158.46661,194.780887 159.774573,194.600987 C161.513158,194.352793 163.286368,194.583793 164.903838,195.269189 C176.6057,193.282231 188.064981,190.060361 199.09039,185.65736 Z" id="S1rxdY3uSZX"/>
                <path d="M257.615305,63.4020912 C258.256463,88.1512658 240.868255,114.493845 235.687697,121.766967 C239.351013,120.240642 242.62799,117.913855 245.279423,114.956447 L247.844055,112.206538 L247.485007,115.95875 C245.869288,132.6381 235.687697,147.338544 224.198143,158.903579 C218.157595,165.023947 211.515694,170.517367 204.373533,175.300229 C199.705902,178.384238 188.780567,185.117658 182.907559,183.549954 C186.254945,184.438426 189.703276,184.887648 193.166089,184.886358 C180.691085,189.982035 167.254414,192.280267 153.798979,191.619778 C152.106322,191.619778 150.157201,191.234277 149.387811,189.717972 L150.824005,187.584866 C149.308497,188.096241 147.676406,188.149866 146.130728,187.739066 C145.381393,187.488822 144.772673,186.932595 144.455064,186.207904 C144.137452,185.483211 144.140596,184.657696 144.463717,183.935455 C145.156167,182.830351 147.028349,181.596748 145.899911,180.800045 C136.551394,182.727201 126.909238,182.727201 117.560721,180.800045 C114.996089,180.286044 112.046761,178.872539 112.303224,176.353932 C112.630366,175.08918 113.316293,173.946549 114.277991,173.064322 C116.451294,170.428558 117.615263,167.102467 117.560721,163.683794 C110.123287,162.758591 102.668754,162.158923 95.1971252,161.884788 C95.7734648,162.538421 96.5852582,162.935921 97.4540018,162.989892 L96.83849,161.062386 C98.0516356,158.640729 99.9759538,156.649595 102.35245,155.356968 C115.40643,146.130641 121.484609,133.871704 129.281092,120.379163 C136.211488,107.951017 144.037285,96.0459955 152.696187,84.7588556 C155.547289,81.1189613 158.649553,77.6838607 161.980157,74.4788246 C158.030623,74.4788246 152.337139,74.941426 149.95203,77.1773327 L145.97685,80.929544 L147.874678,75.7895285 C148.156788,75.0185262 154.901771,56.9256717 162.672608,48.0077448 C166.976918,43.3869325 170.185424,37.8525133 172.059163,31.8166959 C174.596518,23.117911 174.498329,13.859895 171.777053,5.21711573 L171.392358,4.00921209 L172.597736,3.62371093 C205.348094,-7.06752131 220.530718,15.908348 223.762155,21.6137652 C226.814068,18.7610566 227.480873,8.94362697 227.14747,2.82700852 L227.14747,0.462601395 L229.199176,1.64480496 C238.637024,7.29882201 256.845915,35.0035056 257.615305,63.4020912 Z" id="BJ8lOYn_r-Q"/>
                <path d="M136.282539,114.211144 C134.410357,112.309339 134.487296,111.075735 135.000222,110.099132 L136.487709,107.195023 C137.513562,105.318918 138.539415,103.442812 139.642207,101.618106 C141.873438,98.0200956 144.2329,94.524885 146.771886,91.1581749 C149.287452,87.7759445 151.984278,84.5329673 154.850478,81.4435456 C156.312319,79.9015409 157.799806,78.3852364 159.389878,76.946032 C161.001568,75.3771194 162.833231,74.0524423 164.826899,73.0139202 C165.13288,72.8633306 165.486105,72.8410306 165.808528,72.9519444 C166.130951,73.0628583 166.396031,73.2978598 166.545203,73.605022 C166.769008,74.1124057 166.656744,74.7055918 166.263093,75.0956265 L166.109215,75.2241268 C164.792266,76.6320619 163.591498,78.1447633 162.51873,79.7473405 C161.364645,81.3921454 160.236207,83.0883506 159.133415,84.887356 C156.927831,88.3140321 154.77354,91.7407108 152.670541,95.167387 C150.567542,98.6368974 148.49019,102.132108 146.541069,105.653019 C145.540862,107.400624 144.617595,109.173929 143.694327,110.947235 L142.437657,113.517242 C142.078608,114.442445 141.360511,115.110647 138.667647,115.110647 C137.785116,115.139143 136.927344,114.815649 136.282539,114.211144 Z" id="HyDx_K2OBbQ"/>
            </g></g></g>
            <g id="Hkux_K2OSWm_ryc2dtBZX" data-animator-group="true" data-animator-type="0"><g id="Hkux_K2OSWm">
                <path d="M44.1716971,0.152307692 L49.4880155,4.92461538 C49.4880155,4.92461538 26.3735876,-0.152307692 14.8163737,8.40230769 L25.7315202,10.0015385 C14.4326545,13.6758935 5.29897992,22.0091236 0.690889994,32.8476923 C0.690889994,32.8476923 37.1089552,2.38615385 73.5527032,20.1553846 C73.5270205,20.13 63.6134992,-0.812307692 44.1716971,0.152307692 Z" id="H1tg_K2dH-Q"/>
                <path d="M181.39435,9.97615385 L192.309497,8.37692308 C180.752283,-0.177692308 157.637855,4.89923077 157.637855,4.89923077 L162.902808,0.152307692 C143.486689,-0.786923077 133.521802,20.1553846 133.521802,20.1553846 C169.96555,2.38615385 206.409298,32.8476923 206.409298,32.8476923 C201.793121,22.0185549 192.676388,13.6829903 181.39435,9.97615385 Z" id="Skcg_FhdBWm"/>
            </g></g>
            <g id="SJsgut2drWQ">
                <ellipse id="SJ2xdKnuB-m" cx="28.7" cy="15.7708583" rx="15.4716981" ry="15.7446172"/>
                <ellipse id="HkTeuFhOr-7" cx="28.7" cy="15.7708583" rx="5.82767296" ry="5.93047249"/>
                <path d="M0.928301887,37.0785736 C9.91183976,34.4211304 19.0492132,32.3353092 28.2874214,30.8332087 C37.5698456,29.2382562 46.9852568,28.5877692 56.3943396,28.8913726 C57.3425214,28.9477606 58.0742071,29.7621588 58.0446541,30.7282446 C58.0245904,31.1946988 57.8230274,31.6338753 57.4844144,31.9489256 C57.145801,32.2639759 56.69795,32.429023 56.2396226,32.4076705 C47.0570061,31.8141325 37.8389603,32.1657972 28.7257862,33.4573116 C19.5507015,34.6291473 10.456332,36.381949 1.49559748,38.7055173 C1.05902777,38.769235 0.643902488,38.4930057 0.526198969,38.0604675 C0.408495447,37.6279292 0.624857488,37.1737416 1.03144654,36.9998505 L0.928301887,37.0785736 Z" id="BJAeOKhOrZm"/>
                <ellipse id="rk1-_KndrWQ" cx="134.887421" cy="15.7708583" rx="15.4716981" ry="15.7446172"/>
                <ellipse id="SkxbOthdBW7" cx="134.887421" cy="15.7708583" rx="5.82767296" ry="5.93047249"/>
                <path d="M162.143396,38.7842404 C153.183186,36.4582687 144.088668,34.7054383 134.913208,33.5360347 C125.808669,32.2446822 116.599191,31.8930151 107.425157,32.4863935 C106.807919,32.5332687 106.212993,32.2414818 105.864483,31.7209461 C105.515973,31.2004105 105.466824,30.5302078 105.735552,29.962797 C106.00428,29.3953864 106.550057,29.0169706 107.167296,28.9700957 C116.576345,28.6684028 125.991569,29.318877 135.274214,30.9119318 C144.503938,32.4140329 153.632732,34.4998614 162.607547,37.1572967 C162.834022,37.218655 163.026928,37.3697333 163.143205,37.5768073 C163.259482,37.783881 163.289448,38.0297104 163.226415,38.2594199 C163.089455,38.7290595 162.606005,38.9984759 162.143396,38.8629635 L162.143396,38.7842404 Z" id="SJZWOFhdrWm"/>
            </g>
        </g></g>
    </g>
<script>(function(){var a=document.querySelector('#SJdKnuHb7'),b=a.querySelectorAll('style'),c=function(d){b.forEach(function(f){var g=f.textContent;g&amp;&amp;(f.textContent=g.replace(/transform-box:[^;\r\n]*/gi,'transform-box: '+d))})};c('initial'),window.requestAnimationFrame(function(){return c('fill-box')})})();</script></svg>