<svg xmlns="http://www.w3.org/2000/svg" viewBox="0 0 600 600" id="BkmeJ_YO--Q"><style>@-webkit-keyframes SJjm1uF_Zbm_rJQstdWbQ_Animation{0%{-webkit-transform: translate(0px, 0px);transform: translate(0px, 0px);}23.33%{-webkit-transform: translate(0px, 10px);transform: translate(0px, 10px);}100%{-webkit-transform: translate(0px, 0px);transform: translate(0px, 0px);}}@keyframes SJjm1uF_Zbm_rJQstdWbQ_Animation{0%{-webkit-transform: translate(0px, 0px);transform: translate(0px, 0px);}23.33%{-webkit-transform: translate(0px, 10px);transform: translate(0px, 10px);}100%{-webkit-transform: translate(0px, 0px);transform: translate(0px, 0px);}}@-webkit-keyframes SJjm1uF_Zbm_BkKdtdZW7_Animation{0%{-webkit-transform: rotate(0deg);transform: rotate(0deg);}100%{-webkit-transform: rotate(0deg);transform: rotate(0deg);}}@keyframes SJjm1uF_Zbm_BkKdtdZW7_Animation{0%{-webkit-transform: rotate(0deg);transform: rotate(0deg);}100%{-webkit-transform: rotate(0deg);transform: rotate(0deg);}}@-webkit-keyframes BJcQJuYuZ-7_rJFaYOb-Q_Animation{0%{-webkit-transform: translate(0px, 0px);transform: translate(0px, 0px);}23.33%{-webkit-transform: translate(0px, 10px);transform: translate(0px, 10px);}100%{-webkit-transform: translate(0px, 0px);transform: translate(0px, 0px);}}@keyframes BJcQJuYuZ-7_rJFaYOb-Q_Animation{0%{-webkit-transform: translate(0px, 0px);transform: translate(0px, 0px);}23.33%{-webkit-transform: translate(0px, 10px);transform: translate(0px, 10px);}100%{-webkit-transform: translate(0px, 0px);transform: translate(0px, 0px);}}@-webkit-keyframes rJVm1_tObZ7_HkM1Rj--m_Animation{0%{-webkit-transform: scale(0.75, 1);transform: scale(0.75, 1);}23.33%{-webkit-transform: scale(0.5, 1);transform: scale(0.5, 1);}73.33%{-webkit-transform: scale(0.6, 1);transform: scale(0.6, 1);}100%{-webkit-transform: scale(0.75, 1);transform: scale(0.75, 1);}}@keyframes rJVm1_tObZ7_HkM1Rj--m_Animation{0%{-webkit-transform: scale(0.75, 1);transform: scale(0.75, 1);}23.33%{-webkit-transform: scale(0.5, 1);transform: scale(0.5, 1);}73.33%{-webkit-transform: scale(0.6, 1);transform: scale(0.6, 1);}100%{-webkit-transform: scale(0.75, 1);transform: scale(0.75, 1);}}@-webkit-keyframes rJVm1_tObZ7_ByGxquZbX_Animation{0%{-webkit-transform: rotate(180deg);transform: rotate(180deg);}100%{-webkit-transform: rotate(180deg);transform: rotate(180deg);}}@keyframes rJVm1_tObZ7_ByGxquZbX_Animation{0%{-webkit-transform: rotate(180deg);transform: rotate(180deg);}100%{-webkit-transform: rotate(180deg);transform: rotate(180deg);}}@-webkit-keyframes rkgfydFd-bm_SkaON0ZW7_Animation{0%{-webkit-transform: translate(0px, 0px);transform: translate(0px, 0px);}3.33%{-webkit-transform: translate(2px, 0px);transform: translate(2px, 0px);}6.67%{-webkit-transform: translate(0px, 0px);transform: translate(0px, 0px);}10%{-webkit-transform: translate(2px, 0px);transform: translate(2px, 0px);}13.33%{-webkit-transform: translate(0px, 0px);transform: translate(0px, 0px);}16.67%{-webkit-transform: translate(2px, 0px);transform: translate(2px, 0px);}20%{-webkit-transform: translate(0px, 0px);transform: translate(0px, 0px);}23.33%{-webkit-transform: translate(2px, 0px);transform: translate(2px, 0px);}26.67%{-webkit-transform: translate(0px, 0px);transform: translate(0px, 0px);}30%{-webkit-transform: translate(2px, 0px);transform: translate(2px, 0px);}33.33%{-webkit-transform: translate(0px, 0px);transform: translate(0px, 0px);}36.67%{-webkit-transform: translate(2px, 0px);transform: translate(2px, 0px);}40%{-webkit-transform: translate(0px, 0px);transform: translate(0px, 0px);}43.33%{-webkit-transform: translate(2px, 0px);transform: translate(2px, 0px);}46.67%{-webkit-transform: translate(0px, 0px);transform: translate(0px, 0px);}50%{-webkit-transform: translate(2px, 0px);transform: translate(2px, 0px);}53.33%{-webkit-transform: translate(0px, 0px);transform: translate(0px, 0px);}56.67%{-webkit-transform: translate(2px, 0px);transform: translate(2px, 0px);}60%{-webkit-transform: translate(0px, 0px);transform: translate(0px, 0px);}63.33%{-webkit-transform: translate(2px, 2px);transform: translate(2px, 2px);}66.67%{-webkit-transform: translate(0px, 0px);transform: translate(0px, 0px);}70%{-webkit-transform: translate(2px, 2px);transform: translate(2px, 2px);}73.33%{-webkit-transform: translate(0px, 0px);transform: translate(0px, 0px);}76.67%{-webkit-transform: translate(2px, 2px);transform: translate(2px, 2px);}80%{-webkit-transform: translate(0px, 0px);transform: translate(0px, 0px);}83.33%{-webkit-transform: translate(2px, 2px);transform: translate(2px, 2px);}86.67%{-webkit-transform: translate(0px, 0px);transform: translate(0px, 0px);}90%{-webkit-transform: translate(2px, 2px);transform: translate(2px, 2px);}93.33%{-webkit-transform: translate(0px, 0px);transform: translate(0px, 0px);}96.67%{-webkit-transform: translate(2px, 2px);transform: translate(2px, 2px);}100%{-webkit-transform: translate(0px, 0px);transform: translate(0px, 0px);}}@keyframes rkgfydFd-bm_SkaON0ZW7_Animation{0%{-webkit-transform: translate(0px, 0px);transform: translate(0px, 0px);}3.33%{-webkit-transform: translate(2px, 0px);transform: translate(2px, 0px);}6.67%{-webkit-transform: translate(0px, 0px);transform: translate(0px, 0px);}10%{-webkit-transform: translate(2px, 0px);transform: translate(2px, 0px);}13.33%{-webkit-transform: translate(0px, 0px);transform: translate(0px, 0px);}16.67%{-webkit-transform: translate(2px, 0px);transform: translate(2px, 0px);}20%{-webkit-transform: translate(0px, 0px);transform: translate(0px, 0px);}23.33%{-webkit-transform: translate(2px, 0px);transform: translate(2px, 0px);}26.67%{-webkit-transform: translate(0px, 0px);transform: translate(0px, 0px);}30%{-webkit-transform: translate(2px, 0px);transform: translate(2px, 0px);}33.33%{-webkit-transform: translate(0px, 0px);transform: translate(0px, 0px);}36.67%{-webkit-transform: translate(2px, 0px);transform: translate(2px, 0px);}40%{-webkit-transform: translate(0px, 0px);transform: translate(0px, 0px);}43.33%{-webkit-transform: translate(2px, 0px);transform: translate(2px, 0px);}46.67%{-webkit-transform: translate(0px, 0px);transform: translate(0px, 0px);}50%{-webkit-transform: translate(2px, 0px);transform: translate(2px, 0px);}53.33%{-webkit-transform: translate(0px, 0px);transform: translate(0px, 0px);}56.67%{-webkit-transform: translate(2px, 0px);transform: translate(2px, 0px);}60%{-webkit-transform: translate(0px, 0px);transform: translate(0px, 0px);}63.33%{-webkit-transform: translate(2px, 2px);transform: translate(2px, 2px);}66.67%{-webkit-transform: translate(0px, 0px);transform: translate(0px, 0px);}70%{-webkit-transform: translate(2px, 2px);transform: translate(2px, 2px);}73.33%{-webkit-transform: translate(0px, 0px);transform: translate(0px, 0px);}76.67%{-webkit-transform: translate(2px, 2px);transform: translate(2px, 2px);}80%{-webkit-transform: translate(0px, 0px);transform: translate(0px, 0px);}83.33%{-webkit-transform: translate(2px, 2px);transform: translate(2px, 2px);}86.67%{-webkit-transform: translate(0px, 0px);transform: translate(0px, 0px);}90%{-webkit-transform: translate(2px, 2px);transform: translate(2px, 2px);}93.33%{-webkit-transform: translate(0px, 0px);transform: translate(0px, 0px);}96.67%{-webkit-transform: translate(2px, 2px);transform: translate(2px, 2px);}100%{-webkit-transform: translate(0px, 0px);transform: translate(0px, 0px);}}@-webkit-keyframes Bks-1OtdZbm_r1oxDRbZX_Animation{0%{-webkit-transform: translate(0px, 0px);transform: translate(0px, 0px);}3.33%{-webkit-transform: translate(2px, 0px);transform: translate(2px, 0px);}6.67%{-webkit-transform: translate(0px, 0px);transform: translate(0px, 0px);}10%{-webkit-transform: translate(2px, 0px);transform: translate(2px, 0px);}13.33%{-webkit-transform: translate(0px, 0px);transform: translate(0px, 0px);}16.67%{-webkit-transform: translate(2px, 0px);transform: translate(2px, 0px);}20%{-webkit-transform: translate(0px, 0px);transform: translate(0px, 0px);}23.33%{-webkit-transform: translate(2px, 0px);transform: translate(2px, 0px);}26.67%{-webkit-transform: translate(2px, 0px);transform: translate(2px, 0px);}30%{-webkit-transform: translate(2px, 0px);transform: translate(2px, 0px);}33.33%{-webkit-transform: translate(0px, 0px);transform: translate(0px, 0px);}36.67%{-webkit-transform: translate(2px, 0px);transform: translate(2px, 0px);}40%{-webkit-transform: translate(0px, 0px);transform: translate(0px, 0px);}43.33%{-webkit-transform: translate(2px, 0px);transform: translate(2px, 0px);}46.67%{-webkit-transform: translate(0px, 0px);transform: translate(0px, 0px);}50%{-webkit-transform: translate(2px, 0px);transform: translate(2px, 0px);}53.33%{-webkit-transform: translate(0px, 0px);transform: translate(0px, 0px);}56.67%{-webkit-transform: translate(2px, 0px);transform: translate(2px, 0px);}60%{-webkit-transform: translate(0px, 0px);transform: translate(0px, 0px);}63.33%{-webkit-transform: translate(2px, 0px);transform: translate(2px, 0px);}66.67%{-webkit-transform: translate(0px, 0px);transform: translate(0px, 0px);}70%{-webkit-transform: translate(2px, 0px);transform: translate(2px, 0px);}73.33%{-webkit-transform: translate(0px, 0px);transform: translate(0px, 0px);}76.67%{-webkit-transform: translate(2px, 0px);transform: translate(2px, 0px);}80%{-webkit-transform: translate(0px, 0px);transform: translate(0px, 0px);}83.33%{-webkit-transform: translate(2px, 0px);transform: translate(2px, 0px);}86.67%{-webkit-transform: translate(0px, 0px);transform: translate(0px, 0px);}90%{-webkit-transform: translate(2px, 0px);transform: translate(2px, 0px);}93.33%{-webkit-transform: translate(0px, 0px);transform: translate(0px, 0px);}96.67%{-webkit-transform: translate(2px, 0px);transform: translate(2px, 0px);}100%{-webkit-transform: translate(0px, 0px);transform: translate(0px, 0px);}}@keyframes Bks-1OtdZbm_r1oxDRbZX_Animation{0%{-webkit-transform: translate(0px, 0px);transform: translate(0px, 0px);}3.33%{-webkit-transform: translate(2px, 0px);transform: translate(2px, 0px);}6.67%{-webkit-transform: translate(0px, 0px);transform: translate(0px, 0px);}10%{-webkit-transform: translate(2px, 0px);transform: translate(2px, 0px);}13.33%{-webkit-transform: translate(0px, 0px);transform: translate(0px, 0px);}16.67%{-webkit-transform: translate(2px, 0px);transform: translate(2px, 0px);}20%{-webkit-transform: translate(0px, 0px);transform: translate(0px, 0px);}23.33%{-webkit-transform: translate(2px, 0px);transform: translate(2px, 0px);}26.67%{-webkit-transform: translate(2px, 0px);transform: translate(2px, 0px);}30%{-webkit-transform: translate(2px, 0px);transform: translate(2px, 0px);}33.33%{-webkit-transform: translate(0px, 0px);transform: translate(0px, 0px);}36.67%{-webkit-transform: translate(2px, 0px);transform: translate(2px, 0px);}40%{-webkit-transform: translate(0px, 0px);transform: translate(0px, 0px);}43.33%{-webkit-transform: translate(2px, 0px);transform: translate(2px, 0px);}46.67%{-webkit-transform: translate(0px, 0px);transform: translate(0px, 0px);}50%{-webkit-transform: translate(2px, 0px);transform: translate(2px, 0px);}53.33%{-webkit-transform: translate(0px, 0px);transform: translate(0px, 0px);}56.67%{-webkit-transform: translate(2px, 0px);transform: translate(2px, 0px);}60%{-webkit-transform: translate(0px, 0px);transform: translate(0px, 0px);}63.33%{-webkit-transform: translate(2px, 0px);transform: translate(2px, 0px);}66.67%{-webkit-transform: translate(0px, 0px);transform: translate(0px, 0px);}70%{-webkit-transform: translate(2px, 0px);transform: translate(2px, 0px);}73.33%{-webkit-transform: translate(0px, 0px);transform: translate(0px, 0px);}76.67%{-webkit-transform: translate(2px, 0px);transform: translate(2px, 0px);}80%{-webkit-transform: translate(0px, 0px);transform: translate(0px, 0px);}83.33%{-webkit-transform: translate(2px, 0px);transform: translate(2px, 0px);}86.67%{-webkit-transform: translate(0px, 0px);transform: translate(0px, 0px);}90%{-webkit-transform: translate(2px, 0px);transform: translate(2px, 0px);}93.33%{-webkit-transform: translate(0px, 0px);transform: translate(0px, 0px);}96.67%{-webkit-transform: translate(2px, 0px);transform: translate(2px, 0px);}100%{-webkit-transform: translate(0px, 0px);transform: translate(0px, 0px);}}@-webkit-keyframes ByUZyOtdWZm_ByCnL0bbQ_Animation{0%{-webkit-transform: translate(0px, 0px);transform: translate(0px, 0px);}3.33%{-webkit-transform: translate(2px, 0px);transform: translate(2px, 0px);}6.67%{-webkit-transform: translate(0px, 0px);transform: translate(0px, 0px);}10%{-webkit-transform: translate(2px, 0px);transform: translate(2px, 0px);}13.33%{-webkit-transform: translate(0px, 0px);transform: translate(0px, 0px);}16.67%{-webkit-transform: translate(2px, 0px);transform: translate(2px, 0px);}20%{-webkit-transform: translate(0px, 0px);transform: translate(0px, 0px);}23.33%{-webkit-transform: translate(2px, 0px);transform: translate(2px, 0px);}26.67%{-webkit-transform: translate(0px, 0px);transform: translate(0px, 0px);}30%{-webkit-transform: translate(2px, 0px);transform: translate(2px, 0px);}33.33%{-webkit-transform: translate(0px, 0px);transform: translate(0px, 0px);}36.67%{-webkit-transform: translate(2px, 0px);transform: translate(2px, 0px);}40%{-webkit-transform: translate(0px, 0px);transform: translate(0px, 0px);}43.33%{-webkit-transform: translate(2px, 0px);transform: translate(2px, 0px);}46.67%{-webkit-transform: translate(0px, 0px);transform: translate(0px, 0px);}50%{-webkit-transform: translate(2px, 0px);transform: translate(2px, 0px);}53.33%{-webkit-transform: translate(0px, 0px);transform: translate(0px, 0px);}56.67%{-webkit-transform: translate(2px, 0px);transform: translate(2px, 0px);}60%{-webkit-transform: translate(0px, 0px);transform: translate(0px, 0px);}63.33%{-webkit-transform: translate(2px, 0px);transform: translate(2px, 0px);}66.67%{-webkit-transform: translate(0px, 0px);transform: translate(0px, 0px);}70%{-webkit-transform: translate(2px, 0px);transform: translate(2px, 0px);}73.33%{-webkit-transform: translate(0px, 0px);transform: translate(0px, 0px);}76.67%{-webkit-transform: translate(2px, 0px);transform: translate(2px, 0px);}80%{-webkit-transform: translate(0px, 0px);transform: translate(0px, 0px);}83.33%{-webkit-transform: translate(2px, 0px);transform: translate(2px, 0px);}86.67%{-webkit-transform: translate(0px, 0px);transform: translate(0px, 0px);}90%{-webkit-transform: translate(2px, 0px);transform: translate(2px, 0px);}93.33%{-webkit-transform: translate(0px, 0px);transform: translate(0px, 0px);}96.67%{-webkit-transform: translate(2px, 0px);transform: translate(2px, 0px);}100%{-webkit-transform: translate(0px, 0px);transform: translate(0px, 0px);}}@keyframes ByUZyOtdWZm_ByCnL0bbQ_Animation{0%{-webkit-transform: translate(0px, 0px);transform: translate(0px, 0px);}3.33%{-webkit-transform: translate(2px, 0px);transform: translate(2px, 0px);}6.67%{-webkit-transform: translate(0px, 0px);transform: translate(0px, 0px);}10%{-webkit-transform: translate(2px, 0px);transform: translate(2px, 0px);}13.33%{-webkit-transform: translate(0px, 0px);transform: translate(0px, 0px);}16.67%{-webkit-transform: translate(2px, 0px);transform: translate(2px, 0px);}20%{-webkit-transform: translate(0px, 0px);transform: translate(0px, 0px);}23.33%{-webkit-transform: translate(2px, 0px);transform: translate(2px, 0px);}26.67%{-webkit-transform: translate(0px, 0px);transform: translate(0px, 0px);}30%{-webkit-transform: translate(2px, 0px);transform: translate(2px, 0px);}33.33%{-webkit-transform: translate(0px, 0px);transform: translate(0px, 0px);}36.67%{-webkit-transform: translate(2px, 0px);transform: translate(2px, 0px);}40%{-webkit-transform: translate(0px, 0px);transform: translate(0px, 0px);}43.33%{-webkit-transform: translate(2px, 0px);transform: translate(2px, 0px);}46.67%{-webkit-transform: translate(0px, 0px);transform: translate(0px, 0px);}50%{-webkit-transform: translate(2px, 0px);transform: translate(2px, 0px);}53.33%{-webkit-transform: translate(0px, 0px);transform: translate(0px, 0px);}56.67%{-webkit-transform: translate(2px, 0px);transform: translate(2px, 0px);}60%{-webkit-transform: translate(0px, 0px);transform: translate(0px, 0px);}63.33%{-webkit-transform: translate(2px, 0px);transform: translate(2px, 0px);}66.67%{-webkit-transform: translate(0px, 0px);transform: translate(0px, 0px);}70%{-webkit-transform: translate(2px, 0px);transform: translate(2px, 0px);}73.33%{-webkit-transform: translate(0px, 0px);transform: translate(0px, 0px);}76.67%{-webkit-transform: translate(2px, 0px);transform: translate(2px, 0px);}80%{-webkit-transform: translate(0px, 0px);transform: translate(0px, 0px);}83.33%{-webkit-transform: translate(2px, 0px);transform: translate(2px, 0px);}86.67%{-webkit-transform: translate(0px, 0px);transform: translate(0px, 0px);}90%{-webkit-transform: translate(2px, 0px);transform: translate(2px, 0px);}93.33%{-webkit-transform: translate(0px, 0px);transform: translate(0px, 0px);}96.67%{-webkit-transform: translate(2px, 0px);transform: translate(2px, 0px);}100%{-webkit-transform: translate(0px, 0px);transform: translate(0px, 0px);}}@-webkit-keyframes ryKlk_tuZZ7_Bk4RdAZbm_Animation{0%{-webkit-transform: rotate(0deg);transform: rotate(0deg);}20%{-webkit-transform: rotate(-10deg);transform: rotate(-10deg);}46.67%{-webkit-transform: rotate(0deg);transform: rotate(0deg);}73.33%{-webkit-transform: rotate(-10deg);transform: rotate(-10deg);}100%{-webkit-transform: rotate(0deg);transform: rotate(0deg);}}@keyframes ryKlk_tuZZ7_Bk4RdAZbm_Animation{0%{-webkit-transform: rotate(0deg);transform: rotate(0deg);}20%{-webkit-transform: rotate(-10deg);transform: rotate(-10deg);}46.67%{-webkit-transform: rotate(0deg);transform: rotate(0deg);}73.33%{-webkit-transform: rotate(-10deg);transform: rotate(-10deg);}100%{-webkit-transform: rotate(0deg);transform: rotate(0deg);}}@-webkit-keyframes HJ8gy_YdWZQ_HJ9cKAb-m_Animation{0%{-webkit-transform: rotate(0deg);transform: rotate(0deg);}20%{-webkit-transform: rotate(10deg);transform: rotate(10deg);}46.67%{-webkit-transform: rotate(0deg);transform: rotate(0deg);}73.33%{-webkit-transform: rotate(10deg);transform: rotate(10deg);}100%{-webkit-transform: rotate(0deg);transform: rotate(0deg);}}@keyframes HJ8gy_YdWZQ_HJ9cKAb-m_Animation{0%{-webkit-transform: rotate(0deg);transform: rotate(0deg);}20%{-webkit-transform: rotate(10deg);transform: rotate(10deg);}46.67%{-webkit-transform: rotate(0deg);transform: rotate(0deg);}73.33%{-webkit-transform: rotate(10deg);transform: rotate(10deg);}100%{-webkit-transform: rotate(0deg);transform: rotate(0deg);}}#BkmeJ_YO--Q *{-webkit-animation-duration: 3s;animation-duration: 3s;-webkit-animation-iteration-count: infinite;animation-iteration-count: infinite;-webkit-animation-timing-function: cubic-bezier(0, 0, 1, 1);animation-timing-function: cubic-bezier(0, 0, 1, 1);}#SyvlJdK_bZX{fill: #9b2634;}#HyOey_YOZ-Q{fill: #6b1921;}#rJcxJuKObW7{fill: #9b2634;}#r1sg1_KOZWQ{fill: #6b1921;}#HyTe1_Y_-ZQ{fill: #bf4143;}#SyRx1uK_-Zm{fill: #bf4143;}#Hy1-kOFubZ7{fill: #bf4143;}#rJe-J_tObZQ{fill: #9b2634;opacity: 0.3;}#H1M-kOKObb7{fill: #bf4143;}#H17WkuY_-W7{fill: #bf4143;}#By4ZyOtObWX{fill: #bf4143;}#BJHZJ_YuWbQ{fill: #9b2634;opacity: 0.3;}#ryP-1OKO-Z7{fill: #bf4143;}#HkdZk_tO-bm{fill: #bf4143;}#SkF-J_t_Wb7{fill: #bf4143;}#HyqWJ_Fd-Wm{fill: #9b2634;opacity: 0.3;}#H1n-J_Y_WZm{fill: #bf4143;}#r1TW1_FOW-7{fill: #9b2634;opacity: 0.3;}#BkCZJ_KdbZ7{fill: #bf4143;}#ry1zyOY_Z-m{fill: #bf4143;}#SJWMkOKO--X{fill: #cf4544;}#H1MG1_td-Z7{fill: #cf4544;}#rymfkuFd-bQ{fill: #cf4544;}#H1EzydYOZWX{fill: #cf4544;}#HkHzyuY_WZX{fill: #cf4544;}#BJIf1OYO-Wm{fill: #cf4544;}#S1vzJOKO-ZX{fill: #cf4544;}#By_zyOFdWbX{fill: #cf4544;}#HJKMyuFOZW7{fill: #cf4544;}#BJ9fJ_KO-ZQ{opacity: 0.3;fill: #a52517;}#r1nz1OY_bb7{opacity: 0.3;fill: #98232a;}#SkpGydtuZ-m{fill: #333;}#Sy0GkuYu-Zm{fill: #fff;opacity: 0.8;}#Hylmk_K_ZZ7{opacity: 0.3;fill: #98232a;}#r1W7JdK_bWm{fill: #333;}#HyGQJuKOW-Q{fill: #fff;opacity: 0.8;}#B1XQyOYdZZ7{fill: #ffd710;opacity: 0.06;}#HyB7JOFu--7{fill: #71191d;}#BJIX1OY_--7{fill: #cea298;}#ByPm1OYub-7{fill: #cea298;}#BJdmkuFuZWX{fill: #a83322;}#BkKXkuFdWbQ{fill: #a52517;}#BJcQJuYuZ-7{fill: #6b1921;}#SJjm1uF_Zbm{fill: #6b1921;}#BJnQy_tOZWm{fill: #6b1921;opacity: 0.08;}#HJ8gy_YdWZQ_HJ9cKAb-m{-webkit-animation-name: HJ8gy_YdWZQ_HJ9cKAb-m_Animation;animation-name: HJ8gy_YdWZQ_HJ9cKAb-m_Animation;-webkit-transform-origin: 50% 50%;transform-origin: 50% 50%;transform-box: fill-box;-webkit-transform: rotate(0deg);transform: rotate(0deg);}#ryKlk_tuZZ7_Bk4RdAZbm{-webkit-animation-name: ryKlk_tuZZ7_Bk4RdAZbm_Animation;animation-name: ryKlk_tuZZ7_Bk4RdAZbm_Animation;-webkit-transform-origin: 50% 50%;transform-origin: 50% 50%;transform-box: fill-box;-webkit-transform: rotate(0deg);transform: rotate(0deg);}#ByUZyOtdWZm_ByCnL0bbQ{-webkit-animation-name: ByUZyOtdWZm_ByCnL0bbQ_Animation;animation-name: ByUZyOtdWZm_ByCnL0bbQ_Animation;-webkit-transform-origin: 50% 50%;transform-origin: 50% 50%;transform-box: fill-box;-webkit-transform: translate(0px, 0px);transform: translate(0px, 0px);}#Bks-1OtdZbm_r1oxDRbZX{-webkit-animation-name: Bks-1OtdZbm_r1oxDRbZX_Animation;animation-name: Bks-1OtdZbm_r1oxDRbZX_Animation;-webkit-transform-origin: 50% 50%;transform-origin: 50% 50%;transform-box: fill-box;-webkit-transform: translate(0px, 0px);transform: translate(0px, 0px);}#rkgfydFd-bm_SkaON0ZW7{-webkit-animation-name: rkgfydFd-bm_SkaON0ZW7_Animation;animation-name: rkgfydFd-bm_SkaON0ZW7_Animation;-webkit-transform-origin: 50% 50%;transform-origin: 50% 50%;transform-box: fill-box;-webkit-transform: translate(0px, 0px);transform: translate(0px, 0px);}#rJVm1_tObZ7_ByGxquZbX{-webkit-animation-name: rJVm1_tObZ7_ByGxquZbX_Animation;animation-name: rJVm1_tObZ7_ByGxquZbX_Animation;-webkit-transform-origin: 50% 50%;transform-origin: 50% 50%;transform-box: fill-box;-webkit-transform: rotate(180deg);transform: rotate(180deg);}#rJVm1_tObZ7_HkM1Rj--m{-webkit-animation-name: rJVm1_tObZ7_HkM1Rj--m_Animation;animation-name: rJVm1_tObZ7_HkM1Rj--m_Animation;-webkit-animation-timing-function: cubic-bezier(0.42, 0, 1, 1);animation-timing-function: cubic-bezier(0.42, 0, 1, 1);-webkit-transform-origin: 50% 50%;transform-origin: 50% 50%;transform-box: fill-box;-webkit-transform: scale(0.75, 1);transform: scale(0.75, 1);}#BJcQJuYuZ-7_rJFaYOb-Q{-webkit-animation-name: BJcQJuYuZ-7_rJFaYOb-Q_Animation;animation-name: BJcQJuYuZ-7_rJFaYOb-Q_Animation;-webkit-transform-origin: 50% 50%;transform-origin: 50% 50%;transform-box: fill-box;-webkit-transform: translate(0px, 0px);transform: translate(0px, 0px);}#SJjm1uF_Zbm_BkKdtdZW7{-webkit-animation-name: SJjm1uF_Zbm_BkKdtdZW7_Animation;animation-name: SJjm1uF_Zbm_BkKdtdZW7_Animation;-webkit-transform-origin: 50% 50%;transform-origin: 50% 50%;transform-box: fill-box;-webkit-transform: rotate(0deg);transform: rotate(0deg);}#SJjm1uF_Zbm_rJQstdWbQ{-webkit-animation-name: SJjm1uF_Zbm_rJQstdWbQ_Animation;animation-name: SJjm1uF_Zbm_rJQstdWbQ_Animation;-webkit-transform-origin: 50% 50%;transform-origin: 50% 50%;transform-box: fill-box;-webkit-transform: translate(0px, 0px);transform: translate(0px, 0px);}</style><defs/><title>Asset 3</title><g id="SkVlydKdWb7" data-name="Layer 2"><g id="SJSekuKuZb7" data-name="Layer 4"><g id="HJ8gy_YdWZQ_HJ9cKAb-m" data-animator-group="true" data-animator-type="1"><g id="HJ8gy_YdWZQ" data-name="Left Ear"><path d="M234.8,75.6c-7.3,16.2-56.5,72.6-74,90.6a44.7,44.7,0,0,1-4.4,4.3l-.7.6-.2.2a45.5,45.5,0,0,1-24.2,9.7,209.1,209.1,0,0,0,24-31.2,47.3,47.3,0,0,1-17,4.9,210.7,210.7,0,0,0,20.9-26.4,52.1,52.1,0,0,1-14.1,3.6c5-5.4,9.8-11.1,14.1-16.8a47.6,47.6,0,0,1-16.8,4.8,212,212,0,0,0,28.5-38.7l1.1-2.7a116.5,116.5,0,0,1,6.2-10.7h.1a34.7,34.7,0,0,1,2.2-3.2h.1a66.7,66.7,0,0,1,6.7-7.6h.1a52.6,52.6,0,0,1,16.9-11C229.3,35,246.8,48.8,234.8,75.6Z" id="SyvlJdK_bZX"/><path d="M234.8,75.6c-4.5,17.2-56.5,72.6-74,90.6a44.7,44.7,0,0,1-4.4,4.3l-.7.6-.2.2a45.5,45.5,0,0,1-24.2,9.7,209.1,209.1,0,0,0,24-31.2,47.3,47.3,0,0,1-17,4.9c2.9-3.1,31.2-25.2,45.3-48.5C205.9,69.4,242.6,45.2,234.8,75.6Z" id="HyOey_YOZ-Q"/></g></g><g id="ryKlk_tuZZ7_Bk4RdAZbm" data-animator-group="true" data-animator-type="1"><g id="ryKlk_tuZZ7" data-name="Right Ear"><path d="M399.1,74.7c5.1,17,46.4,79.3,61.4,99.5a44.5,44.5,0,0,0,3.8,4.8l.6.7.2.2a45,45,0,0,0,22.7,12.8,212.2,212.2,0,0,1-19.7-34.1,47.4,47.4,0,0,0,16.3,7.2,209.3,209.3,0,0,1-17.3-29,47.7,47.7,0,0,0,13.5,5.4,213.7,213.7,0,0,1-11.8-18.5,46.4,46.4,0,0,0,16,7,206.1,206.1,0,0,1-23.1-42.1c-.3-1-.5-2-.8-2.8a94.8,94.8,0,0,0-4.7-11.5h-.1a26.3,26.3,0,0,0-1.8-3.4h-.1a55.5,55.5,0,0,0-5.6-8.4c0-.1-.1-.1-.1-.2A53.5,53.5,0,0,0,433.2,49C409.9,35.2,390.6,46.5,399.1,74.7Z" id="rJcxJuKObW7"/><path d="M399.1,74.7c2.1,17.6,46.4,79.3,61.4,99.5a44.5,44.5,0,0,0,3.8,4.8l.6.7.2.2a45,45,0,0,0,22.7,12.8,212.2,212.2,0,0,1-19.7-34.1,47.4,47.4,0,0,0,16.3,7.2c-2.5-3.6-27.7-29.1-38.6-54.1C428.5,72.3,395.3,43.5,399.1,74.7Z" id="r1sg1_KOZWQ"/></g></g><g id="H13gkOtObZX" data-name="Right Leg"><path d="M476.2,674.1S449.6,787.7,467,810.5s47.5,75.5-42.4,78.6c-84,2.9-93.6-12.4-99.2-37.9s-5.1-102.3,5.8-121S476.2,674.1,476.2,674.1Z" id="HyTe1_Y_-ZQ"/><path d="M453.2,723.8q-3.7,26.9,15.4,43.6a204.4,204.4,0,0,1,0-57.4C472.6,681.8,457,696.9,453.2,723.8Z" id="SyRx1uK_-Zm"/><path d="M444.5,737.7c.6,18.1,8.1,31.5,22.7,40.3a204.6,204.6,0,0,1-9.9-56.5C456.3,693,443.6,710.6,444.5,737.7Z" id="Hy1-kOFubZ7"/><path d="M424.6,889.1c-84,2.9-93.6-12.4-99.2-37.9s-5.1-102.3,5.8-121c4.4-7.6,29-18.2,56.8-28.2,17.7-6.4-29.2,74.6-12.6,115.3C396.9,870.2,475.3,887.4,424.6,889.1Z" id="rJe-J_tObZQ"/></g><g id="Hkbbkdt_Wbm" data-name="Left Leg"><path d="M108.7,702a206.7,206.7,0,0,1,2.6,57.3q18.5-17.7,13.4-44.3C119.6,688.3,103.3,673.9,108.7,702Z" id="H1M-kOKObb7"/><path d="M115.6,714.6a208.4,208.4,0,0,1-.5,57.4q19.3-16.7,15.7-43.5C127.2,701.6,111.8,686.3,115.6,714.6Z" id="H17WkuY_-W7"/><path d="M101.5,679.3s21.9,91.4,18.9,109.2-40.9,77.3,16.5,97.1c53.7,18.5,101.1,10.9,123.8-1.5s12.1-29.2,18.9-110.6S101.5,679.3,101.5,679.3Z" id="By4ZyOtObWX"/><path d="M180.5,895.5c34.9,3.9,63.9-2.5,80.2-11.4,22.6-12.4,12.1-29.2,18.9-110.6,2.7-32.6-25.3-54.2-59.8-68.4-27.4-11.2,11,58.8,6.6,111.8C222.5,864.3,174,894.8,180.5,895.5Z" id="BJHZJ_YuWbQ"/></g><g id="ByUZyOtdWZm_ByCnL0bbQ" data-animator-group="true" data-animator-type="0"><g id="ByUZyOtdWZm" data-name="Left Arm"><path d="M84.9,347.3a210,210,0,0,1-28,50.1q24.9-5.2,34.7-30.6C101.4,341.5,95.1,320.6,84.9,347.3Z" id="ryP-1OKO-Z7"/><path d="M69,386.3a206.6,206.6,0,0,1-28,50.1c16.7-3.5,28.2-13.7,34.7-30.6C85.5,380.5,79.3,359.6,69,386.3Z" id="HkdZk_tO-bm"/><path d="M195.6,231.8s-63.4,2.7-91.6,43.5c17.8-2.4-.7,8.7-6.9,23.7,12.7-7.6-1.7,21.9-17.2,59.5-19,46.2-42.5,104.6-53,121.7-19,31-24,93-15,107s-48,81,29,112,126-261,126-261l41-177Z" id="SkF-J_t_Wb7"/><path d="M195.7,231.8s-57.8,205.2-71.8,248c-11.3,34.5-25.2,84.9-43,114.7C61.1,627.7,84.2,674,41,699.2c77,31,126-261,126-261l41-177Z" id="HyqWJ_Fd-Wm"/></g></g><g id="Bks-1OtdZbm_r1oxDRbZX" data-animator-group="true" data-animator-type="0"><g id="Bks-1OtdZbm" data-name="Right Arm"><path d="M414.5,220.9s65.9,18.2,94.3,57.9c0,0-19.5-10.3-12.3.3,3,4.5,17.9,8.7,23.8,23.5,0,0-17.8-11.9-11.7-.7,34.1,62,51.9,145.2,70.9,176.2s24,93,15,107,48,81-29,112-126-261-126-261l-41-177Z" id="H1n-J_Y_WZm"/><path d="M404.6,244.5s56.2,67.7,67.9,140.6,25.6,136.1,44.6,167.1,7.5,129.1,48.4,144.9c-77,31-126-261-126-261l-41-177Z" id="r1TW1_FOW-7"/><path d="M533.1,395.1c5.7,17.2,16.7,28,33.2,32.4A209.5,209.5,0,0,1,540.8,376C531.9,348.9,524.7,369.4,533.1,395.1Z" id="BkCZJ_KdbZ7"/><path d="M539.7,418.5c5.6,17.2,16.7,27.9,33.1,32.3a204,204,0,0,1-25.4-51.5C538.5,372.2,531.2,392.7,539.7,418.5Z" id="ry1zyOY_Z-m"/></g></g><g id="rkgfydFd-bm_SkaON0ZW7" data-animator-group="true" data-animator-type="0"><g id="rkgfydFd-bm"><path d="M427.8,158.3q5.1,26.5,28.8,36.2a204.8,204.8,0,0,1-18.8-54.3C432.3,112.2,422.5,131.6,427.8,158.3Z" id="SJWMkOKO--X"/><path d="M427.8,174.7c3.4,17.8,13,29.8,28.8,36.2a204.1,204.1,0,0,1-18.8-54.2C432.3,128.7,422.5,148.1,427.8,174.7Z" id="H1MG1_td-Z7"/><path d="M311.7,9.5c19.2,0,31.9.4,56.6,6.9,45.6,12,80,58.8,75.4,115.8-2.4,29.4,2.2,60,8,78.7,7.7,24.9,11.9,33.2,20.4,59.6,13,40,9.8,106.2-3.2,150S589.7,792.8,278.7,792.8s-123-312.4-123-359-1.6-74.3-3.5-105.9c-2.1-36.5,16.5-80.9,20.8-115.4,3.3-26.4-3-65.6,4.7-96.7,12.6-51,47-87.9,89.3-101.8C274.2,11.6,290.1,9.5,311.7,9.5Z" id="rymfkuFd-bQ"/><path d="M182.8,156.4a203,203,0,0,1-24.6,51.8c16.4-4.6,27.2-15.5,32.6-32.8C198.9,149.5,191.3,129.1,182.8,156.4Z" id="H1EzydYOZWX"/><path d="M186.8,171.2a208,208,0,0,1-28.3,49.9c16.6-3.4,28.3-13.6,34.9-30.4C203.3,165.5,197.2,144.6,186.8,171.2Z" id="HkHzyuY_WZX"/><path d="M183.3,137.5a207.8,207.8,0,0,1-20,53.9q23.8-9.2,29.6-35.6C198.7,129.3,189.3,109.6,183.3,137.5Z" id="BJIf1OYO-Wm"/><path d="M329.3,12.8A204.8,204.8,0,0,1,273.3,0c8.1,15,21.1,23.2,39.1,24.8C339.5,27.1,357.7,15.3,329.3,12.8Z" id="S1vzJOKO-ZX"/><path d="M354.6,16a208.5,208.5,0,0,1-56-12.8c8.1,14.9,21.1,23.2,39.1,24.7C364.8,30.2,383,18.4,354.6,16Z" id="By_zyOFdWbX"/><path d="M430.8,189.1q5.1,26.7,28.8,36.2a202.9,202.9,0,0,1-18.8-54.2C435.3,143.1,425.5,162.5,430.8,189.1Z" id="HJKMyuFOZW7"/></g></g><ellipse id="BJ9fJ_KO-ZQ" data-name="Chin Shadow" cx="297.2" cy="182.5" rx="27.7" ry="2.2"/><g id="BkizkOt_ZZX" data-name="Left Eye"><path d="M241.9,102.7c9.3-9.2,3.1-26,10.8-18.3A19.6,19.6,0,1,1,225,112.1C217.3,104.5,232.7,111.9,241.9,102.7Z" id="r1nz1OY_bb7"/><ellipse cx="238.7" cy="97.6" rx="15.8" ry="15.5" id="SkpGydtuZ-m"/><circle id="Sy0GkuYu-Zm" data-name="Eye Highlight" cx="233.8" cy="92.3" r="4.9"/></g><g id="H1J7ydtdZWQ" data-name="Right Eye"><path d="M352.8,102.7c9.3-9.2,3.1-26,10.8-18.3a19.6,19.6,0,1,1-27.8,27.7C328.2,104.5,343.6,111.9,352.8,102.7Z" id="Hylmk_K_ZZ7"/><path d="M349.5,113.1a15.5,15.5,0,1,1,15.8-15.5A15.6,15.6,0,0,1,349.5,113.1Z" id="r1W7JdK_bWm"/><circle id="HyGQJuKOW-Q" data-name="Eye Highlight" cx="344.7" cy="95.1" r="4.9"/></g><path id="B1XQyOYdZZ7" d="M436.6,597.3c10.3,52.3-6.3,130.4-143.6,129.8-45.7-.2-162.3,18.9-127-151.4s6.1-182.8,22.7-236c11.7-37.4,41.4-64.3,89.4-73.1a54,54,0,0,1-5.2-7.1c6.3,2,12.6,3.7,19,5.1l2.4-.2a50.9,50.9,0,0,1-6-8.2,224.7,224.7,0,0,0,22,6,58.1,58.1,0,0,1-4.3-7.8,187,187,0,0,0,29.2,10.1,176.9,176.9,0,0,1,28.6,5.1,26.4,26.4,0,0,1,4.1,1.1h.1c35,10.3,66.1,32.8,74.2,75C459.5,434.8,422.2,524.6,436.6,597.3Z"/><g id="rJVm1_tObZ7_ByGxquZbX" data-animator-group="true" data-animator-type="1"><g id="rJVm1_tObZ7_HkM1Rj--m" data-animator-group="true" data-animator-type="2"><g id="rJVm1_tObZ7"><rect id="HyB7JOFu--7" data-name="Mouth Background" x="213.1" y="137.3" width="174.9" height="12.22"/><rect id="BJIX1OY_--7" data-name="Left Tooth" x="264.3" y="141.1" width="26.4" height="8.45"/><rect id="ByPm1OYub-7" data-name="Right Tooth" x="296" y="140.8" width="25" height="9.7"/><path id="BJdmkuFuZWX" data-name="Bottom Lip" d="M414.2,138.9c0,8.1-53,26.5-111.6,26.5s-115.2-16.1-115.2-24.3,56.6,8.7,115.2,8.7S414.2,130.7,414.2,138.9Z"/><path id="BkKXkuFdWbQ" data-name="Top Lip" d="M414.2,138.1c0,3.5-57.4,4.9-112.5,4.9s-113.4.2-113.4-3.3,58.4-8,113.4-8S414.2,134.6,414.2,138.1Z"/></g></g></g><g id="BJcQJuYuZ-7_rJFaYOb-Q" data-animator-group="true" data-animator-type="0"><path id="BJcQJuYuZ-7" data-name="Right Eyebrow" d="M413.1,72.5c-10.7,8.9-23.1,11-37.2,6.6C366,76,358.5,73.4,353,71.2c-19.5-7-28.1-20.2-6.7-13.5a165.5,165.5,0,0,0,46.2,7.6,32.4,32.4,0,0,1-3.1,2.4c4.5.5,9.2.8,13.9,1l-4.1,2.9C403.8,72.1,408.4,72.4,413.1,72.5Z"/></g><g id="SJjm1uF_Zbm_rJQstdWbQ" data-animator-group="true" data-animator-type="0"><g id="SJjm1uF_Zbm_BkKdtdZW7" data-animator-group="true" data-animator-type="1"><path id="SJjm1uF_Zbm" data-name="Left Eyebrow" d="M188.6,64.1c9.5,10.2,21.5,13.9,36.1,11.5,10.2-1.8,18-3.4,23.7-4.9,20.3-4.3,30.6-16.3,8.5-12.4A171,171,0,0,1,210,59.7c.9,1,1.9,1.9,2.8,2.8-4.6-.1-9.2-.4-13.9-.9,1.2,1.2,2.4,2.4,3.6,3.4C197.9,64.9,193.3,64.6,188.6,64.1Z"/></g></g><path id="BJnQy_tOZWm" data-name="Body Shadow" d="M392.1,772c-147.2,72.8-54.7-159.2,22.1-376.7,33-93.7,0-214,0-295.1,0-61.9-50.5-85-45.9-83.8,45.6,12,80,58.8,75.4,115.8a219.1,219.1,0,0,0-.2,30.3,209,209,0,0,0,13.1,32,50.8,50.8,0,0,1-9.5-5.1,203.9,203.9,0,0,0,9.5,21.5,38.2,38.2,0,0,1-4.6-2.1c2.3,5.6,4.8,11.1,7.6,16.5l-3.8-1.7c5.4,16,9.4,25.6,16.3,46.9,13,40,9.8,106.2-3.2,150C457.9,457.6,552.3,699.2,392.1,772Z"/></g></g><script>(function(){var a=document.querySelector('#BkmeJ_YO--Q'),b=a.querySelectorAll('style'),c=function(d){b.forEach(function(f){var g=f.textContent;g&amp;&amp;(f.textContent=g.replace(/transform-box:[^;\r\n]*/gi,'transform-box: '+d))})};c('initial'),window.requestAnimationFrame(function(){return c('fill-box')})})();</script></svg>